<?xml version="1.0" encoding="UTF-8" standalone="no"?>
<!DOCTYPE svg PUBLIC "-//W3C//DTD SVG 1.1//EN"
 "http://www.w3.org/Graphics/SVG/1.1/DTD/svg11.dtd">
<!-- Generated by graphviz version 2.43.0 (0)
 -->
<!-- Title: finite_state_machine Pages: 1 -->
<svg width="986pt" height="113pt"
 viewBox="0.00 0.00 986.05 113.48" xmlns="http://www.w3.org/2000/svg" xmlns:xlink="http://www.w3.org/1999/xlink">
<g id="graph0" class="graph" transform="scale(1 1) rotate(0) translate(4 109.48)">
<title>finite_state_machine</title>
<polygon fill="white" stroke="transparent" points="-4,4 -4,-109.48 982.05,-109.48 982.05,4 -4,4"/>
<g id="clust1" class="cluster">
<title>cluster</title>
<polygon fill="lightgrey" stroke="lightgrey" points="8,-45.48 8,-97.48 287.19,-97.48 287.19,-45.48 8,-45.48"/>
</g>
<!-- fn -->
<g id="node1" class="node">
<title>fn</title>
<ellipse fill="none" stroke="black" cx="43" cy="-71.48" rx="27" ry="18"/>
<text text-anchor="middle" x="43" y="-67.78" font-family="Times,serif" font-size="14.00">fn</text>
</g>
<!-- input -->
<g id="node2" class="node">
<title>input</title>
<ellipse fill="none" stroke="black" cx="244.1" cy="-71.48" rx="35.19" ry="18"/>
<text text-anchor="middle" x="244.1" y="-67.78" font-family="Times,serif" font-size="14.00">input</text>
</g>
<!-- fn&#45;&gt;input -->
<g id="edge1" class="edge">
<title>fn&#45;&gt;input</title>
<path fill="none" stroke="black" d="M70.03,-71.48C102.64,-71.48 159.02,-71.48 198.55,-71.48"/>
<polygon fill="black" stroke="black" points="198.71,-74.98 208.71,-71.48 198.71,-67.98 198.71,-74.98"/>
<text text-anchor="middle" x="139.5" y="-75.28" font-family="Times,serif" font-size="14.00">doesn&#39;t accept</text>
</g>
<!-- factory -->
<g id="node4" class="node">
<title>factory</title>
<polygon fill="none" stroke="black" points="383.19,-55.48 316.19,-55.48 316.19,-19.48 383.19,-19.48 383.19,-55.48"/>
<text text-anchor="middle" x="349.69" y="-33.78" font-family="Times,serif" font-size="14.00">factory</text>
</g>
<!-- fn&#45;&gt;factory -->
<g id="edge2" class="edge">
<title>fn&#45;&gt;factory</title>
<path fill="none" stroke="black" d="M69.04,-66.48C101.27,-60.26 159.07,-49.8 209,-44.48 241.44,-41.02 278.3,-39.26 306.01,-38.38"/>
<polygon fill="black" stroke="black" points="306.26,-41.87 316.15,-38.08 306.05,-34.87 306.26,-41.87"/>
</g>
<!-- input&#45;&gt;factory -->
<g id="edge3" class="edge">
<title>input&#45;&gt;factory</title>
<path fill="none" stroke="black" d="M273.95,-62.01C283.95,-58.73 295.37,-54.98 306.22,-51.42"/>
<polygon fill="black" stroke="black" points="307.57,-54.66 315.98,-48.21 305.38,-48.01 307.57,-54.66"/>
</g>
<!-- false -->
<g id="node3" class="node">
<title>false</title>
<ellipse fill="none" stroke="black" cx="945.55" cy="-37.48" rx="32.49" ry="18"/>
<text text-anchor="middle" x="945.55" y="-33.78" font-family="Times,serif" font-size="14.00">false</text>
</g>
<!-- a -->
<g id="node6" class="node">
<title>a</title>
<ellipse fill="none" stroke="black" cx="532.62" cy="-37.48" rx="112.36" ry="37.45"/>
<text text-anchor="middle" x="532.62" y="-48.78" font-family="Times,serif" font-size="14.00">function that</text>
<text text-anchor="middle" x="532.62" y="-33.78" font-family="Times,serif" font-size="14.00"> doesn&#39;t recognize a</text>
<text text-anchor="middle" x="532.62" y="-18.78" font-family="Times,serif" font-size="14.00"> regular language</text>
</g>
<!-- factory&#45;&gt;a -->
<g id="edge4" class="edge">
<title>factory&#45;&gt;a</title>
<path fill="none" stroke="black" d="M383.46,-37.48C391.39,-37.48 400.35,-37.48 409.82,-37.48"/>
<polygon fill="black" stroke="black" points="409.87,-40.98 419.87,-37.48 409.87,-33.98 409.87,-40.98"/>
</g>
<!-- regularLanguageDecider -->
<g id="node5" class="node">
<title>regularLanguageDecider</title>
<polygon fill="none" stroke="black" points="876.05,-55.48 682.05,-55.48 682.05,-19.48 876.05,-19.48 876.05,-55.48"/>
<text text-anchor="middle" x="779.05" y="-33.78" font-family="Times,serif" font-size="14.00">regularLanguageDecider</text>
</g>
<!-- regularLanguageDecider&#45;&gt;false -->
<g id="edge6" class="edge">
<title>regularLanguageDecider&#45;&gt;false</title>
<path fill="none" stroke="black" d="M876.22,-37.48C885.51,-37.48 894.56,-37.48 902.87,-37.48"/>
<polygon fill="black" stroke="black" points="902.97,-40.98 912.97,-37.48 902.97,-33.98 902.97,-40.98"/>
</g>
<!-- a&#45;&gt;regularLanguageDecider -->
<g id="edge5" class="edge">
<title>a&#45;&gt;regularLanguageDecider</title>
<path fill="none" stroke="black" d="M645.11,-37.48C653.89,-37.48 662.74,-37.48 671.48,-37.48"/>
<polygon fill="black" stroke="black" points="671.69,-40.98 681.69,-37.48 671.69,-33.98 671.69,-40.98"/>
</g>
</g>
</svg>
