<svg version="1.1" xmlns="http://www.w3.org/2000/svg" viewBox="0 0 464.0000000000001 334.9999999999998" width="464.0000000000001" height="334.9999999999998">
  <!-- svg-source:excalidraw -->
  
  <defs>
    <style>
      @font-face {
        font-family: "Virgil";
        src: url("https://excalidraw.com/Virgil.woff2");
      }
      @font-face {
        font-family: "Cascadia";
        src: url("https://excalidraw.com/Cascadia.woff2");
      }
    </style>
  </defs>
  <g transform="translate(15.5 97) rotate(0 21.5 22)"><path d="M24.93525984522529 1.2350174454181193 C29.586432027892243 1.7883344141972919, 35.469231708399356 5.204732762653807, 38.628349075631704 8.55244792612155 C41.78746644286405 11.900163089589293, 44.1336312930116 16.878391577052557, 43.88996404861937 21.32130842622458 C43.64629680422714 25.7642252753966, 40.24476362637053 31.349457694884812, 37.16634560927832 35.209949021153676 C34.08792759218612 39.07044034742254, 29.752109266934898 43.52157440215829, 25.419455946066133 44.48425638383777 C21.086802625197368 45.44693836551724, 15.099242626977285 43.45441818635927, 11.170425684065728 40.98604091123054 C7.241608741154172 38.51766363610181, 3.586338458548152 34.18038500638583, 1.8465542885967956 29.67399273306538 C0.1067701186454395 25.16760045974492, -0.7947918896079074 18.39127659804224, 0.7317206643575922 13.947687271307798 C2.2582332183230918 9.504097944573358, 6.292629158236335 5.126291620578028, 11.005629612389793 3.012456772658741 C15.718630066543252 0.8986219247394538, 25.5430708789444 1.325716033973008, 29.009723389278342 1.2646781837920749 C32.476375899612286 1.2036403336111416, 32.186800543925756 2.171757104131547, 31.805544674393452 2.646229671573142 M17.47438818768689 0.2570858261731175 C21.476788005215766 -1.0767400455631444, 27.6406280237052 0.6079833371711927, 31.3873124985818 2.717682005492229 C35.1339969734584 4.8273806738132645, 38.08256573607228 8.715154242424884, 39.95449503694649 12.915277836099335 C41.8264243378207 17.115401429773787, 43.828734210761574 23.51540683875976, 42.618888303827056 27.918423567538937 C41.40904239689254 32.321440296318116, 36.74975929215417 36.85569479268278, 32.69541959533939 39.333378208774405 C28.64107989852461 41.81106162486603, 22.885168412677697 43.05736792177329, 18.292850122938376 42.784524064088686 C13.700531833199054 42.51168020640408, 8.314384582729653 41.13327112762038, 5.141509856903454 37.69631506266676 C1.9686351310772543 34.25935899771314, -0.5381611013759807 26.847921197397337, -0.744398232018824 22.16278767436697 C-0.9506353626616674 17.477654151336605, 0.7433915994820341 12.978470743013009, 3.9040870730463944 9.58551392448456 C7.064782546610754 6.192557105956112, 15.947639865782289 3.4896442475309897, 18.219774609367338 1.8050467631962803 C20.491909352952387 0.12044927886157075, 17.848099249760814 -0.8481197301857766, 17.53689553455669 -0.5220709815236972" stroke="#000000" stroke-width="1" fill="none"></path></g><g transform="translate(35 106.5) rotate(0 2 12.5)"><text x="2" y="18" font-family="Virgil, Segoe UI Emoji" font-size="20px" fill="#000000" text-anchor="middle" style="white-space: pre;" direction="ltr">1</text></g><g transform="translate(128 13.5) rotate(0 21.5 22)"><path d="M13.730214916465293 1.892548516919689 C17.668312103059346 0.12786700870268675, 24.862126344296076 0.44842166795445704, 29.19994993458713 1.8391200766423381 C33.53777352487818 3.2298184853302194, 37.529399752594564 6.190842503663049, 39.75715645821162 10.236738969046975 C41.98491316382867 14.282635434430901, 43.37343369019729 21.412220357950897, 42.56649016828945 26.114498868945894 C41.75954664638161 30.81677737994089, 38.524042286569866 35.588136085587905, 34.91549532676458 38.45041003501696 C31.306948366959293 41.31268398444601, 25.39617401708942 43.28422071672091, 20.915208409457733 43.288142565520204 C16.434242801826045 43.2920644143195, 11.485386665140505 41.24286664655234, 8.02970168097445 38.473941127812736 C4.574016696808394 35.70501560907313, 1.0455246535959515 31.396643173288012, 0.1810985044613993 26.674589453082557 C-0.6833276446731528 21.952535732877102, 0.3861433904668652 14.375305872513733, 2.8431447861671373 10.14161880658001 C5.30014618186741 5.907931740646285, 12.613636781053692 2.754516709713312, 14.923106878663031 1.2724670574802133 C17.23257697627237 -0.2095825947528851, 16.637175280543936 0.9834968718953785, 16.69996537182317 1.2493208931814195 M17.26982880175708 0.7406609683602419 C21.78126290009667 -0.5428833252533465, 28.154851210768264 -0.2034075835996738, 31.94781672006959 1.562017975411095 C35.740782229370915 3.327443534421864, 38.07160714165575 6.748383250037746, 40.02762185756504 11.333214322424855 C41.98363657347433 15.918045394811964, 44.94139507511991 24.383716205472815, 43.68390501552534 29.07100440973375 C42.426414955930774 33.75829261399468, 36.51606214406021 37.08438901145793, 32.48268149999765 39.45694354799047 C28.449300855935103 41.82949808452301, 23.861865618353512 43.805812758115295, 19.483621151150032 43.30633162892897 C15.105376683946552 42.80685049974265, 9.398909707790972 39.872120960212676, 6.213214696776765 36.460056772872534 C3.0275196857625577 33.04799258553239, 0.7862884408240403 27.206896514390916, 0.36945108506478874 22.833946504888107 C-0.04738627069446277 18.4609964953853, 1.022677550104771 13.77742350599936, 3.712190562221256 10.222356715855673 C6.401703574337741 6.6672899257119855, 14.688933915555204 3.2409170858915637, 16.506529157763698 1.5035457640259828 C18.32412439997219 -0.23382555783959824, 14.844644777185431 -0.6551710341290651, 14.617762015472216 -0.20187121533781394" stroke="#000000" stroke-width="1" fill="none"></path></g><g transform="translate(142 23) rotate(0 7.5 12.5)"><text x="7.5" y="18" font-family="Virgil, Segoe UI Emoji" font-size="20px" fill="#000000" text-anchor="middle" style="white-space: pre;" direction="ltr">2</text></g><g transform="translate(10 276.9999999999998) rotate(0 21.5 22)"><path d="M25.648996343231435 0.4324423663981918 C29.951626221127285 1.1306520640932605, 36.230971837425614 4.58455446219315, 39.06328793357088 8.25093715804051 C41.89560402971614 11.917319853887872, 43.06533184603192 17.59753768805357, 42.642892920102994 22.430738541482356 C42.22045399417407 27.26393939491114, 39.687242205166996 33.71062599887085, 36.528654377997356 37.25014227861321 C33.370066550827715 40.78965855835557, 28.02082452763881 43.12915871669976, 23.69136595708517 43.667836219936525 C19.361907386531534 44.20651372317329, 14.502322344203328 43.10094952290232, 10.551902954675533 40.4822072980338 C6.601483565147738 37.86346507316528, 1.4016170721475287 32.502319368818625, -0.011150380081598854 27.95538287072542 C-1.4239178323107264 23.408446372632213, 0.07123666104471615 17.580156802028437, 2.075298241300768 13.200588309474567 C4.079359821556819 8.821019816920696, 7.418047824973988 3.6830234402282036, 12.013219101454713 1.677971915402189 C16.608390377935436 -0.3270796094238255, 26.265545544425237 0.9756603737835784, 29.646325900185115 1.1702791605184792 C33.02710625594499 1.36489794725338, 32.257815989025154 2.421939759942257, 32.297901236013985 2.845684635811594 M29.97102910310192 3.810279942718779 C34.31133288169367 5.519931118203573, 40.812788788117366 7.95440177446605, 42.73843172034886 12.028210901069338 C44.66407465258036 16.102020027672626, 43.21908840377867 23.534950668837542, 41.52488669649091 28.253134702338507 C39.83068498920315 32.971318735839475, 36.541689377975075 37.69366287336769, 32.573221476622294 40.337315102075124 C28.604753575269513 42.980967330782555, 22.374183312036784 44.69723581104735, 17.71407928837423 44.11504807458308 C13.053975264711674 43.53286033811881, 7.428668534795115 40.237354391508006, 4.612597334646958 36.84418868328948 C1.796526134498802 33.451022975070956, 0.7394023202749228 28.66864162074318, 0.8176520874852926 23.756053825271906 C0.8959018546956624 18.84346602980063, 2.6691030209356703 11.450532540999241, 5.082095937909177 7.368661910461821 C7.495088854882683 3.2867912799244, 10.706419953393864 0.20044711029169748, 15.295609589326332 -0.7351699579526212 C19.884799225258803 -1.67078702619694, 30.14111879019847 0.9204305208378537, 32.61723375350399 1.7549595009959091 C35.09334871680951 2.5894884811539645, 30.313065135858334 3.959068980477746, 30.15229936915944 4.272003922995712" stroke="#000000" stroke-width="1" fill="none"></path></g><g transform="translate(24.5 286.4999999999998) rotate(0 7 12.5)"><text x="7" y="18" font-family="Virgil, Segoe UI Emoji" font-size="20px" fill="#000000" text-anchor="middle" style="white-space: pre;" direction="ltr">3</text></g><g transform="translate(130 105) rotate(0 21.5 22)"><path d="M31.174389486956912 2.542370271939273 C35.30379061650337 4.194416355830106, 39.83033415645301 8.277167224019994, 41.56547830416392 12.459325954467541 C43.30062245187482 16.64148468491509, 42.815684568026356 23.11664271684473, 41.58525437322233 27.635322654624556 C40.3548241784183 32.15400259240438, 37.90886579960275 36.97502605090667, 34.18289713533972 39.57140558114649 C30.456928471076694 42.167785111386316, 24.003665605706416 43.51368998806125, 19.229442387644156 43.2135998360635 C14.455219169581895 42.91350968406575, 8.805181243009912 41.026003323049345, 5.537557826966166 37.770864669159984 C2.2699344109224207 34.51572601527062, -0.2315716162795877 28.420814713703106, -0.37629810861831814 23.68276791272735 C-0.5210246009570486 18.944721111751594, 2.0992011646709496 13.251081816767956, 4.669198872933784 9.342583863305444 C7.239196581196618 5.434085909842933, 10.475875591982213 1.3875102306900773, 15.043688140958686 0.2317801919522786 C19.61150068993516 -0.9239498467855201, 29.11779503842981 1.9669228597510109, 32.07607416679262 2.4082036308786527 C35.034353295155434 2.849484402006295, 33.04926567500471 2.6073145203111867, 32.793362911135546 2.87946481871813 M16.235050671964117 2.0805425293226527 C20.571447985483474 0.32918534291019363, 26.487112336718873 -0.7789399053930666, 30.41675149074948 1.2769005617387066 C34.34639064478009 3.3327410288704797, 37.61306031465674 10.190786917921443, 39.81288559614776 14.415585332113292 C42.012710877638774 18.64038374630514, 44.746669436299555 22.35954420033622, 43.615703179695586 26.625691046889795 C42.48473692309162 30.89183789344337, 37.18361072589085 37.15738552302527, 33.027088056523944 40.01246641143474 C28.87056538715704 42.867547299844205, 23.36092045636368 44.159301491099114, 18.67656716349416 43.75617637734659 C13.992213870624639 43.35305126359407, 8.215551413053136 40.980734025516874, 4.92096829930682 37.59371572891959 C1.626385185560503 34.20669743232231, -1.0828451203605363 28.077704692481824, -1.0909315189837407 23.43406659776288 C-1.0990179176069452 18.790428503043934, 1.857638743131993 13.755479241848931, 4.872449907567592 9.731887160605929 C7.8872610720031915 5.708295079362926, 15.314572003192122 0.9483612263762193, 16.997935467629855 -0.707485889695139 C18.681298932067588 -2.3633330057664974, 14.785904037129464 -0.678166094785557, 14.972630694193985 -0.20319553582222127" stroke="#000000" stroke-width="1" fill="none"></path></g><g transform="translate(145.5 114.5) rotate(0 6 12.5)"><text x="6" y="18" font-family="Virgil, Segoe UI Emoji" font-size="20px" fill="#000000" text-anchor="middle" style="white-space: pre;" direction="ltr">4</text></g><g transform="translate(258 13.5) rotate(0 21.5 22)"><path d="M20.10924585633214 0.8900792804606681 C24.5065761924402 0.5309752963685321, 31.201437747408946 1.5526871650516743, 35.02833818561479 4.3953005535789025 C38.85523862382064 7.237913942106131, 42.07496172203071 13.331041960460434, 43.07064848556721 17.945759611624037 C44.066335249103716 22.560477262787643, 43.376500281306065 28.024887166041026, 41.00245876683382 32.083606460560524 C38.62841725236157 36.14232575508002, 33.12710639901705 40.576715527946504, 28.82639939873375 42.298075378741025 C24.525692398450445 44.019435229535546, 19.51893673856285 43.97768961568016, 15.198216765134005 42.41176556532766 C10.877496791705159 40.84584151497516, 5.517237841592085 36.78232019861242, 2.902079558160672 32.90253107662602 C0.28692127472925977 29.022741954639617, -1.127740219590541 23.71028291470336, -0.4927329354544696 19.133030833409258 C0.14227434868160194 14.555778752115156, 2.731621618868955 8.619573236225003, 6.7121232629771015 5.439018588861408 C10.692624907085248 2.2584639414978134, 20.599981644495227 0.9317231649765437, 23.39027692919441 0.04970294922768659 C26.180572213893594 -0.8323172665211706, 23.534108756620284 -0.17859777766123547, 23.453894971172197 0.14689729436826582 M23.86652540052741 -0.49955098402260845 C28.1806506424448 0.14818059453213372, 32.98120256919794 4.915482883454036, 36.16458785596124 8.802632041085737 C39.347973142724534 12.689781198717437, 42.68355179135098 18.49890415705823, 42.96683712110721 22.8233439617676 C43.250122450863444 27.147783766476966, 40.94353848898608 31.060589788971768, 37.86429983449865 34.749270869341935 C34.785061180011226 38.4379519497121, 28.686407668035276 44.08979591844238, 24.491405194182676 44.955430443988604 C20.296402720330075 45.82106496953483, 16.613817972836966 42.45630945014995, 12.694284991383054 39.943078022619304 C8.774752009929141 37.429846595088655, 3.0082343071580593 34.04840721107712, 0.9742073054591991 29.876041878804706 C-1.059819696239661 25.703676546532296, -0.8659424743129511 19.29930512199477, 0.4901229811898915 14.908886028984838 C1.8461884366927341 10.518466935974908, 5.273220387285933 6.0019881884443205, 9.110600038476255 3.533527320745126 C12.947979689666576 1.0650664530459317, 20.801704388598168 0.4695966261141346, 23.51440088833182 0.09812082278967438 C26.227097388065474 -0.27335498053478585, 25.12551194942645 1.1469747875666119, 25.38677903687818 1.3046725007983646" stroke="#000000" stroke-width="1" fill="none"></path></g><g transform="translate(272.5 23) rotate(0 7 12.5)"><text x="7" y="18" font-family="Virgil, Segoe UI Emoji" font-size="20px" fill="#000000" text-anchor="middle" style="white-space: pre;" direction="ltr">5</text></g><g transform="translate(134 202.99999999999977) rotate(0 21.5 22)"><path d="M18.030989468871617 -0.52448827939563 C22.492340948225234 -1.349100432703485, 30.01214718702971 0.9563399169927176, 33.95746085883902 3.7006864955379015 C37.90277453064833 6.445033074083085, 40.39529209361848 11.391715801129482, 41.702871499727465 15.941591191875474 C43.01045090583645 20.491466582621467, 43.57118308811574 26.846093599484444, 41.80293729549294 30.999938840013858 C40.03469150287014 35.153784080543275, 35.27891082054123 38.71825551458675, 31.093396743990674 40.86466263505196 C26.907882667440116 43.01106975551716, 21.21642786497718 44.84943639852901, 16.689852836189594 43.87838156280508 C12.163277807402007 42.907326727081156, 6.828028841493824 38.96862129479188, 3.933946571265146 35.0383336207084 C1.0398643010364683 31.108045946624923, -1.0079300949403043 25.02620849525599, -0.6746407851824721 20.296655518304217 C-0.3413514754246399 15.567102541352444, 2.4589284563903413 9.914807339451931, 5.933682429812139 6.661015758997756 C9.408436403233937 3.4072241785435815, 17.50132696437577 1.969506575368337, 20.173883055348313 0.77390603557917 C22.846439146320854 -0.4216945042099969, 22.005454216791108 -0.8176465425160799, 21.969018975647387 -0.5125874797372454 M18.870035027956853 -0.654162332451353 C22.990780580243452 -1.4923037186522587, 28.532677040359776 -0.4962634129463521, 32.639727431984156 2.2361006926643086 C36.74677782360854 4.968464798274969, 41.847547986416224 11.06056538974713, 43.51233737770313 15.740022301212612 C45.17712676899004 20.419479212678095, 44.85571768606988 26.20573401246012, 42.6284637797056 30.312842161457212 C40.401209873341315 34.419950310454304, 34.27555021357352 37.96372318048673, 30.148813939517424 40.38267119519517 C26.022077665461335 42.80161920990361, 22.424631968776897 45.79924999699381, 17.868046135369056 44.826530249707844 C13.311460301961215 43.85381050242188, 5.814436562861484 38.679550395851656, 2.809298939070384 34.5463527114794 C-0.19583868472071542 30.41315502710715, -0.6589906176969764 24.83420799537988, -0.1627796073775407 20.027344143474323 C0.333431402941895 15.220480291568766, 2.5324039686980675 9.210774764732939, 5.786565000986998 5.705169600046062 C9.040726033275929 2.199564435359185, 17.162028140500645 -0.2831760877324285, 19.362186586356046 -1.0062868446469402 C21.562345032211446 -1.7293976015614518, 18.889138775662897 0.6882265088909486, 18.987515676119397 1.3665050585589924" stroke="#000000" stroke-width="1" fill="none"></path></g><g transform="translate(150.5 211.49999999999977) rotate(0 5 12.5)"><text x="5" y="18" font-family="Virgil, Segoe UI Emoji" font-size="20px" fill="#000000" text-anchor="middle" style="white-space: pre;" direction="ltr">6</text></g><g transform="translate(261 102) rotate(0 21.5 22)"><path d="M18.716278012492204 -0.04001823247011771 C22.798574025237233 -1.1083666546859445, 28.0121431731575 0.6289306119198539, 31.933574496905432 3.0315242672583906 C35.85500582065336 5.434117922596927, 40.69499918884261 10.01161470152648, 42.24486595497979 14.375543699561103 C43.794732721116965 18.739472697595726, 43.07581100180614 24.691059229538375, 41.23277509372852 29.21509825546614 C39.3897391856509 33.7391372813939, 35.23926985184885 39.15147127753592, 31.186650506514102 41.519777855127685 C27.13403116117935 43.88808443271945, 21.195656363052176 44.37149575839796, 16.917059021720014 43.42493772101676 C12.638461680387852 42.47837968363556, 8.493530405853182 39.56347501878481, 5.515066458521122 35.84042963084047 C2.5366025111890624 32.11738424289613, -0.9792181117283292 25.840256954011856, -0.9537246622723465 21.086665393350735 C-0.9282312128163639 16.333073832689614, 1.6410018193546767 10.947206046363512, 5.668027155257018 7.318880266873734 C9.695052491159359 3.6905544873839555, 19.59797926262771 0.4041172514732996, 23.208427353141705 -0.6832892835879356 C26.8188754436557 -1.7706958186491708, 27.48551065027805 0.46523179751410737, 27.330715698340985 0.7944410565063222 M30.66039238448652 1.3998818061797813 C34.48135133689651 3.1524271075714765, 37.7757280924876 10.4212651669527, 39.92227113830988 14.670045856586013 C42.068814184132165 18.918826546219325, 44.7264986335923 22.64309326160911, 43.539650659420246 26.892565943979655 C42.35280268524819 31.1420386263502, 36.9900394854057 37.36132963947341, 32.80118329327758 40.16688195080929 C28.612327101149464 42.97243426214517, 23.084522912828355 44.18821294405004, 18.40651350665154 43.72587981199492 C13.728504100474723 43.2635466799398, 7.98565704890434 40.82108482481984, 4.733126856216678 37.39288315847856 C1.4805966635290173 33.96468149213728, -1.158666177146328 27.804196473446197, -1.1086676494744268 23.15666981394725 C-1.0586691218025255 18.509143154448303, 1.9713685088364592 13.496089539866746, 5.033118022248086 9.507723201484875 C8.094867535659713 5.519356863103004, 13.143919438593175 0.6379920400836987, 17.261829430995334 -0.7735282163439763 C21.379739423397496 -2.1850484727716513, 27.238481117296743 0.5645865814179576, 29.740577976661044 1.0386016629188255 C32.242674836025344 1.5126167444196934, 32.35875819216422 1.2821205821993953, 32.27441058718113 2.070562272661231" stroke="#000000" stroke-width="1" fill="none"></path></g><g transform="translate(278.5 111.5) rotate(0 4 12.5)"><text x="4" y="18" font-family="Virgil, Segoe UI Emoji" font-size="20px" fill="#000000" text-anchor="middle" style="white-space: pre;" direction="ltr">7</text></g><g transform="translate(268 280.9999999999998) rotate(0 21.5 22)"><path d="M14.427426683758602 0.9993658509381511 C18.655466868517635 -0.8586821236904025, 25.04501283155409 0.17189282651195215, 29.42268889404277 1.7943583055118602 C33.80036495653145 3.4168237845117684, 38.597101084082055 6.7431809288917055, 40.693483058690695 10.734158724937599 C42.789865033299336 14.725136520983492, 42.834590896532156 21.130399055777517, 42.000980741694605 25.74022508178722 C41.167370586857054 30.350051107796922, 39.171065047757004 35.46591050755328, 35.69182212966539 38.393114880995824 C32.212579211573775 41.32031925443837, 25.91856071751566 43.1878344971078, 21.125523233144904 43.30345132244246 C16.332485748774147 43.419068147777125, 10.476771513969984 42.035879290193314, 6.933597223440859 39.08681583300381 C3.3904229329117346 36.13775237581431, 0.414558148392589 30.29388995039666, -0.13352251002984517 25.60907057930543 C-0.6816031684522793 20.9242512082142, 0.9318516872916569 15.251920055953988, 3.6451132729062543 10.977899606456425 C6.358374858520852 6.703879156958862, 13.335526143334196 1.7512915040763322, 16.14604700365774 -0.0350521176799532 C18.95656786398128 -1.8213957394362386, 20.226199579358436 -0.0605881986329031, 20.508238434847513 0.25983787591871277 M18.570248825422333 1.4476110731684209 C23.04475989114158 1.2135685166171948, 30.22281176912037 3.2342250724596595, 34.10905972477435 5.616638050596411 C37.995307680428326 7.999051028733161, 40.987005633285904 11.171287922828444, 41.887736559346195 15.742088941988928 C42.788467485406485 20.312889961149413, 41.213743218964154 28.882296658890926, 39.51344528113611 33.04144416555932 C37.81314734330806 37.200591672227716, 35.76334240028891 39.04637071326255, 31.68594893237792 40.69697398199929 C27.608555464466924 42.34757725073604, 19.81967230827057 44.03157722909109, 15.049084473670142 42.94506377797978 C10.278496639069717 41.858550326868475, 5.7411504214180145 38.004347692905355, 3.062421924775368 34.17789327533144 C0.3836934281327209 30.351438857757532, -1.415564017935403 24.676606009930296, -1.023286506185741 19.986337272536325 C-0.631008994436079 15.296068535142354, 1.7812000006927113 9.253285158194494, 5.416086995273339 6.036280850967614 C9.050973989853967 2.8192765437407346, 18.22802185267217 1.8366934640937604, 20.786035461298027 0.6843114291750467 C23.344049069923884 -0.468070605743667, 21.102783213465496 -0.9231655589745955, 20.764168647028484 -0.8780113585446685" stroke="#000000" stroke-width="1" fill="none"></path></g><g transform="translate(283 290.4999999999998) rotate(0 6.5 12.5)"><text x="6.5" y="18" font-family="Virgil, Segoe UI Emoji" font-size="20px" fill="#000000" text-anchor="middle" style="white-space: pre;" direction="ltr">8</text></g><g transform="translate(322.0000000000002 167.99999999999977) rotate(0 21.499999999999943 22)"><path d="M24.50387368882021 0.7067388175417477 C28.882692485569418 0.7609685246257296, 33.81492719832997 2.8673654636178227, 36.87109124658832 6.2805054469376564 C39.927255294846674 9.69364543025749, 42.615720450976006 16.423146329970095, 42.84085797837032 21.18557871746075 C43.06599550576464 25.948011104951405, 41.07763080806817 31.26790825474531, 38.22191641095423 34.855099771881584 C35.36620201384029 38.44229128901786, 30.06621185012307 41.65432169905186, 25.706571595686675 42.70872782027838 C21.34693134125028 43.763133941504904, 16.086711205943843 43.06594430673402, 12.064074884335843 41.18153649924071 C8.041438562727844 39.297128691747396, 3.4251250115010645 35.819659212870114, 1.570753666038673 31.40228097531852 C-0.28361767942371885 26.984902737766927, -0.3392000196038374 19.250507750608342, 0.9378468115614922 14.677267073931148 C2.214893642726822 10.104026397253953, 4.8500311932984514 6.216099672020006, 9.23303465303065 3.962836915255359 C13.616038112762848 1.7095741584907125, 23.808136342833613 1.4214060631418406, 27.235867569954685 1.1576905333432705 C30.663598797075757 0.8939750035447005, 29.94939944966807 2.1594930747376977, 29.79942201575708 2.380543736463938 M13.076220103372371 1.9671741091893864 C16.453917148214728 -0.546762695828455, 20.826507334048827 -2.1284634429008715, 25.31662964247961 -0.7689495408260889 C29.806751950910396 0.5905643612486939, 37.307129103157706 6.240931419229325, 40.016953953957085 10.124257521638084 C42.726778804756464 14.007583624046843, 42.06478790143924 18.164876767985827, 41.575578747275884 22.531007073626462 C41.08636959311253 26.897137379267097, 39.997272655978406 32.962223103092235, 37.08169902897696 36.32103935548189 C34.16612540197552 39.67985560787155, 28.571061747682744 42.17829000629908, 24.082136985267212 42.6839045879644 C19.59321222285168 43.18951916962972, 14.024322468781687 41.58374213470894, 10.148150454483776 39.35472684547383 C6.271978440185865 37.12571155623871, 2.132370320086795 33.49785985396104, 0.8251048994797507 29.309812852553698 C-0.48216052112729346 25.121765851146357, 0.7273768000290406 18.93685369556141, 2.3045579308415114 14.226444837029781 C3.881739061653982 9.516035978498152, 8.911856591703744 2.72425772797056, 10.288191684354576 1.04735970136392 C11.664526777005408 -0.62953832524272, 10.279192554017326 3.76285064445141, 10.562568486746502 4.165056677389941" stroke="#000000" stroke-width="1" fill="none"></path></g><g transform="translate(338.0000000000001 177.49999999999977) rotate(0 5.5 12.5)"><text x="5.5" y="18" font-family="Virgil, Segoe UI Emoji" font-size="20px" fill="#000000" text-anchor="middle" style="white-space: pre;" direction="ltr">9</text></g><g transform="translate(394.0000000000001 10) rotate(0 21.5 22)"><path d="M26.787534887130803 0.09324508388592179 C30.988286344244887 0.9630813346129283, 36.39674994041582 5.892518503212948, 39.00311145480346 9.81354267181585 C41.609472969191096 13.73456684041875, 42.92874016194572 19.110537550514657, 42.425703973456606 23.61939009550333 C41.922667784967494 28.128242640492005, 39.12124642897017 33.5587769839823, 35.98489432386878 36.86665794174789 C32.84854221876739 40.17453889951348, 28.10871969481833 42.82022092496419, 23.60759134284826 43.46667584209688 C19.10646299087819 44.11313075922958, 12.788876028716924 43.538733865641305, 8.978124212048366 40.74538744454405 C5.167372395379807 37.952041023446796, 1.9848903584974489 31.32253961993003, 0.7430804428369058 26.706597315513367 C-0.49872947282363733 22.090655011096704, -0.38481079176651267 17.110293597931996, 1.5272647180851067 13.04973361804408 C3.439340227936726 8.989173638156164, 7.68344003609377 4.281596431551759, 12.215533501946622 2.3432374361858628 C16.747626967799473 0.40487844081996616, 25.59439204964124 1.388589388876235, 28.719825513202217 1.4195796458486996 C31.845258976763194 1.450569902821164, 31.13731027093344 2.010314626792876, 30.968134283312487 2.5291789780206493 M20.386535367228916 -1.3114655487322686 C24.75761524511068 -1.3117352453940143, 33.10523420639642 3.3359383563153746, 36.581079685379606 6.465964877604552 C40.056925164362795 9.59599139889373, 40.670804722565634 13.175784765978541, 41.24160824112805 17.468693579002796 C41.81241175969046 21.76160239202705, 42.063461416784804 28.22348375731215, 40.00590079675409 32.22341775575008 C37.94834017672338 36.223351754188, 33.1306297638576 39.90721212185817, 28.896244520943767 41.46829756963036 C24.661859278029933 43.029383017402544, 18.943797191602833 42.84298829395631, 14.599589339271091 41.5899304423832 C10.25538148693935 40.33687259081009, 5.109874852874761 37.69821478402266, 2.830997406953319 33.94995046019169 C0.5521199610318774 30.201686136360713, 0.369703680615479 24.112924642916262, 0.9263246637424416 19.10034449939735 C1.4829456468694042 14.08776435587844, 2.987568212344176 6.8354038320328065, 6.170723305715095 3.874469599078214 C9.353878399086014 0.9135353661236221, 17.609128647838904 2.0629082664558465, 20.025255223967953 1.3347391016698005 C22.441381800097002 0.6065699368837544, 20.203818631378365 -0.8634878671364052, 20.66748276248938 -0.4945453896380627" stroke="#000000" stroke-width="1" fill="none"></path></g><g transform="translate(406.0000000000001 19.5) rotate(0 9.5 12.5)"><text x="9.5" y="18" font-family="Virgil, Segoe UI Emoji" font-size="20px" fill="#000000" text-anchor="middle" style="white-space: pre;" direction="ltr">10</text></g><g transform="translate(407.0000000000001 191.99999999999977) rotate(0 21.5 22)"><path d="M22.877651595610455 0.24390112966858268 C27.322887907423112 0.2727768939749611, 31.99869175200398 2.8408594918606074, 35.38672446710035 6.005948786828547 C38.774757182196716 9.171038081796487, 42.510480713870685 14.773009984615971, 43.205847886188664 19.234436899476222 C43.901215058506644 23.695863814336473, 42.05042084296866 28.77207459489406, 39.55892750100823 32.77451027599006 C37.06743415904779 36.776945957086056, 32.651685487632236 41.684086765824304, 28.256887834426056 43.24905098605221 C23.862090181219877 44.81401520628012, 17.576349934004075 44.06520522116029, 13.190141581771156 42.164295597357494 C8.803933229538238 40.2633859735547, 4.024195573956601 35.99997771932875, 1.9396377210285394 31.843593243235425 C-0.14492013189952235 27.687208767142103, -0.31069163193467286 21.60568977001877, 0.6827944642027859 17.225988740797554 C1.6762805603402446 12.84628771157634, 3.91559561561634 8.558294644894106, 7.900554297853292 5.565387067908137 C11.885512980090244 2.5724794909221687, 21.493738829613328 -0.06406327442518267, 24.592546557624498 -0.7314567211182563 C27.69135428563567 -1.39885016781133, 26.58528632069742 0.9893624701810193, 26.493400665920312 1.5610263877496955 M13.078241651911748 0.026427441285925113 C17.334764571264504 -1.7080840163851667, 25.202097751517226 -0.5173819783559035, 29.91543978900042 1.1810178694772162 C34.62878182648362 2.8794177173103357, 39.37758411891745 6.388197270250405, 41.35829387681092 10.216826528284644 C43.33900363470439 14.045455786318882, 42.52801289291117 19.179442753237907, 41.799698336361246 24.152793417682652 C41.07138377981132 29.126144082127396, 40.54627189103607 36.83759946063844, 36.98840653751138 40.05693051495311 C33.43054118398669 43.27626156926778, 25.32593700882316 43.73378563400199, 20.452506215213106 43.46877974357068 C15.57907542160305 43.20377385313937, 11.112722447128661 41.53939616853764, 7.747821775851042 38.46689517236523 C4.382921104573423 35.39439417619281, 1.0562142813378936 29.75037266919135, 0.2631021875473891 25.033773766536203 C-0.5300099062431155 20.317174863881057, 0.7536806679119077 13.965895037996777, 2.989149213108014 10.167301756434348 C5.22461775830412 6.368708474871919, 11.740620113573026 3.503227088138221, 13.675913458724029 2.2422140771616306 C15.611206803875032 0.9812010661850401, 14.677841448047854 2.622441233942878, 14.600909284014033 2.6012236905748054" stroke="#000000" stroke-width="1" fill="none"></path></g><g transform="translate(425.0000000000001 201.49999999999977) rotate(0 3.5 12.5)"><text x="3.5" y="18" font-family="Virgil, Segoe UI Emoji" font-size="20px" fill="#000000" text-anchor="middle" style="white-space: pre;" direction="ltr">11</text></g><g transform="translate(411.0000000000001 101) rotate(0 21.5 22)"><path d="M14.128802071916652 0.6568852703319621 C18.066768908540602 -0.9946311041396727, 23.71493432313244 0.5201008596101513, 28.080680550744997 2.18195987063422 C32.446426778357555 3.8438188816582883, 37.80147045661758 6.624534507990079, 40.323279437592 10.628039336476373 C42.84508841856642 14.631544164962667, 43.94485312374885 21.557382595638902, 43.21153443659152 26.202988841551985 C42.47821574943419 30.848595087465068, 39.64130740714171 35.556524884667255, 35.92336731464802 38.501676811954866 C32.20542722215433 41.44682873924248, 25.5345675068365 43.88951333664586, 20.90389388162938 43.87390040527767 C16.27322025642226 43.858287473909485, 11.621685157687935 41.521552602115676, 8.139325563405306 38.407999223745755 C4.656965969122677 35.29444584537583, 1.0104853548890433 29.70650216835324, 0.009736315933608353 25.192580135058137 C-0.9910127230218266 20.678658101763034, -0.6467856364944868 15.474994570039787, 2.1348313296726964 11.324467023975142 C4.91644829583988 7.173939477910497, 13.541520215819885 2.094998897873608, 16.699438112936708 0.28941485867026273 C19.85735601005353 -1.5161691805330826, 21.094073704874646 0.1876568932874913, 21.082338712373634 0.4909627887550698 M24.415327095557856 0.17640227334785408 C28.690072398478726 0.539150911231437, 34.49693724827737 3.4252516477793304, 37.356357120259254 7.343044393404988 C40.21577699224114 11.260837139030645, 41.50433817906604 18.610493117336908, 41.57184632744918 23.683158747101796 C41.63935447583232 28.755824376866684, 40.60973736338943 34.595865121713345, 37.761406010558076 37.77903817199431 C34.913074657726725 40.96221122227527, 29.243134841918167 42.027554551243206, 24.48185821046109 42.782197048787566 C19.720581579004016 43.536839546331926, 12.834163703826025 44.795199781826625, 9.19374622181563 42.306893157260475 C5.5533287398052344 39.818586532694326, 4.027174820407166 32.57008610727883, 2.6393533183987152 27.852357301390665 C1.2515318163902645 23.134628495502497, -0.4233778175134546 18.19643043721377, 0.8668172097649247 14.000520321931479 C2.157012237043304 9.804610206649187, 6.463165880028191 4.898891024727655, 10.380523482068991 2.676896609696918 C14.297881084109791 0.45490219466618065, 22.053497694488453 1.0017440039294438, 24.370962822009727 0.6685538317470545 C26.688427949531 0.3353636595646652, 24.030479557486665 0.2594847969025989, 24.28531424719663 0.677755576602582" stroke="#000000" stroke-width="1" fill="none"></path></g><g transform="translate(423.0000000000001 110.5) rotate(0 9.5 12.5)"><text x="9.5" y="18" font-family="Virgil, Segoe UI Emoji" font-size="20px" fill="#000000" text-anchor="middle" style="white-space: pre;" direction="ltr">12</text></g><g><g transform="translate(56.46349015682938 103.75027052725665) rotate(0 34.26775956377389 -27.178097071498627)"><path d="M-1.0365098431706428 -0.5666396901011467 C10.712626993407802 -9.901886248034424, 57.93443845982351 -46.71853103956673, 69.57202897071836 -56.106464670253914 M0.6201837598253044 1.750270527256653 C12.338901535517843 -7.403464054255744, 57.69292672589109 -45.10143969144206, 68.90513104905372 -54.756041344106194" stroke="#364fc7" stroke-width="2" fill="none"></path></g></g><g><g transform="translate(-23.313438254206858 196.72449075813324) rotate(77.9584367855819 59.179623844003174 12.157030784234564)"><path d="M0.6477615550160407 0.8980221793055534 C20.35353976830493 4.936308150227237, 99.21183390541131 20.125209623254182, 118.8305500459463 23.990181690367272 M-0.4713023579400033 0.3238798781018706 C18.991819009600466 4.063564726823065, 97.47358224223497 18.719176438008716, 117.6875286429633 22.384038298219778" stroke="#364fc7" stroke-width="2" fill="none"></path></g></g><g><g transform="translate(67.02653084449526 144.24949586598984) rotate(39.410144553392804 26.842345333854098 -19.95644586258075)"><path d="M0.7062273547053337 0.7006389811635017 C9.687477408866526 -5.739895750998114, 45.324082077644476 -32.243525758975025, 54.06683268112207 -38.891044438890546 M-0.3821420134138316 0.022870500935241678 C8.403017898318485 -6.734929415450026, 43.6794806391985 -33.72956098441298, 52.984523582775914 -40.61353070632498" stroke="#364fc7" stroke-width="2" fill="none"></path></g></g><g><g transform="translate(184.9221834803327 59.17827881470686) rotate(39.410144553392804 30.298842972289208 -26.68092467529135)"><path d="M-0.1797901913523674 -0.2523267701268196 C10.276410254218437 -8.858895143639586, 52.05629993666339 -42.83713993018638, 62.331004715730295 -51.22102611375774 M-1.7333187711518259 -1.4304022697824985 C8.594669637630515 -10.440198459221342, 50.41375862495419 -44.62879744547564, 61.34856083645565 -53.10952258045587" stroke="#364fc7" stroke-width="2" fill="none"></path></g></g><g><g transform="translate(184.9221834803327 151.17827881470686) rotate(39.410144553392804 31.539458513292857 -26.080820676003526)"><path d="M1.0739959761500357 0.4597647383809089 C11.692956488706923 -8.355610149871849, 52.724780127298125 -43.82985780125629, 62.90021189229642 -52.62140609038795 M0.1787051342893391 -0.3444627193082124 C10.754902645225458 -9.062688843725539, 52.04319091567214 -43.09269219885725, 62.21660178071898 -51.585102044816935" stroke="#364fc7" stroke-width="2" fill="none"></path></g></g><g><g transform="translate(77.0756290070101 306.03399452408553) rotate(39.410144553392804 15.649535541593593 -43.99562808622221)"><path d="M-0.582933135330677 -1.1653755471110343 C4.9126881645320415 -16.071957639511943, 26.374735884963748 -74.13583574323118, 31.882004218517874 -88.828454517761 M1.3118882392812519 0.8371983453165739 C6.7237485364245675 -13.946746015353398, 25.713148873941257 -72.58244481000253, 30.80636559160154 -87.46061439612112" stroke="#364fc7" stroke-width="2" fill="none"></path></g></g><g><g transform="translate(306.5000000000001 35) rotate(0 42.09059903303631 -1.575312428176403)"><path d="M0.768709520995617 -0.022712020576000302 C14.748324494063855 -0.5283470436930657, 70.47625565975905 -2.763047771155834, 84.46805477589369 -3.127912835776806 M-0.28685670982114964 -1.080239776717499 C13.524034835295753 -1.3844654387701303, 69.66267101217993 -1.1475710627902296, 83.76573806961068 -1.6576418233383445" stroke="#364fc7" stroke-width="2" fill="none"></path></g></g><g><g transform="translate(307.5000000000002 118) rotate(0 44.91788896118294 -37.03138714283705)"><path d="M0.17969756573438644 0.5811955645680427 C14.857829384505749 -11.85111385633548, 73.96582036465406 -62.151844450334714, 88.89109726399184 -74.64396985024214 M-1.1850999415945263 -0.15928070937283345 C13.77602979321964 -12.439184828049813, 76.01925718714483 -61.26298599853801, 91.02087786396034 -73.44462877039797" stroke="#364fc7" stroke-width="2" fill="none"></path></g></g><g><g transform="translate(301.5000000000001 140) rotate(0 13.841302818791007 14.41836586081888)"><path d="M1.0610786631703377 0.9281498953700067 C5.541803299884001 5.587088700632255, 23.088530591626963 24.060188425083954, 27.52359940558672 28.46690707653761 M0.1590062319952994 0.36982464510016166 C4.384090014171476 4.619074071325983, 21.8963902832785 21.925364136475448, 26.325443629892543 26.589458542941138" stroke="#364fc7" stroke-width="2" fill="none"></path></g></g><g><g transform="translate(163.5 109) rotate(0 48.526381821930386 -31.123421149463383)"><path d="M-0.7811290070414543 0.5217011019587516 C15.325486234327158 -9.553982793788116, 81.27122424791257 -50.43432901253303, 97.83389265090227 -60.76784829646349 M1.0096395349223166 -0.2500097648520023 C16.839206489197288 -10.68355995766508, 80.60999810911404 -52.74127495589045, 96.79864082899876 -62.768543400885534" stroke="#364fc7" stroke-width="2" fill="none"></path></g></g><g><g transform="translate(153.68169358995738 150.9856513112784) rotate(0 1.2078979447483675 25.92783331033303)"><path d="M1.0458741858601568 -1.0071743443608283 C1.4593250313944413 7.733115886608122, 1.9324451344941034 42.73171439249992, 2.2799764853994815 51.87207939153527 M0.135819404097274 1.0784551795106383 C0.3639447561170206 9.981847970224901, 0.6615304681115075 44.37985343821339, 1.0627232849597452 52.86284096502689" stroke="#364fc7" stroke-width="2" fill="none"></path></g></g><g><g transform="translate(263.2434841489512 148.76335402566008) rotate(0 -43.30654709042511 30.69539442509415)"><path d="M-0.9556571289896965 -0.12527346163988118 C-15.529661352282066 10.210197325071013, -72.39755109968434 52.2775338010009, -86.8940177863556 62.6274348245282 M0.7434841489512474 -1.2366459743399174 C-13.955752870712104 8.656511188644611, -72.43918074762287 49.89279815999638, -87.35657832980148 60.6074421489239" stroke="#364fc7" stroke-width="2" fill="none"></path></g></g><g><g transform="translate(406.5000000000001 55) rotate(0 -24.285629803715324 57.2633456430724)"><path d="M-1.1375400826334954 -0.5973288014531135 C-8.95868261307478 18.43158426731825, -40.121317605674264 94.47785649746656, -48.05857494324446 113.72891464680433 M0.4661126446444541 1.7034696324449032 C-7.419151003090665 20.951929810522124, -41.24862821760588 96.56730794685893, -49.037372252075 115.1240200875979" stroke="#364fc7" stroke-width="2" fill="none"></path></g></g><g><g transform="translate(366.5000000000001 188.99999999999977) rotate(0 20.621008972660547 6.815129798976727)"><path d="M0.5346779063344003 -0.16278333216905594 C7.333989782631397 2.1207974001765253, 34.86024181395769 11.43260155171156, 41.88577286750078 13.942087130248547 M-0.6437549221795054 -1.2938485268969089 C5.892174400361254 1.0804798381309957, 33.72324989733286 12.015794154582544, 40.87775815931149 14.924108124850317" stroke="#364fc7" stroke-width="2" fill="none"></path></g></g><g><g transform="translate(426.5000000000001 51) rotate(0 1.2698192711034153 26.521875600516807)"><path d="M-0.08434389084577565 -0.9639550164341926 C0.5867799157897632 8.219981754322847, 3.4822071587045986 44.85509116301934, 4.127401705086231 54.007706217467785 M-1.5877631628792734 1.1443646545987578 C-1.0723206465722375 10.106735978204135, 2.4967470480718963 43.92009081182691, 3.2462421366292986 52.41417723285966" stroke="#364fc7" stroke-width="2" fill="none"></path></g></g><g><g transform="translate(57.698252907889014 293.7061167081722) rotate(0 105.35005431398753 -0.7425965153034895)"><path d="M0.43107648342847815 0.4929315760731696 C35.86472917985637 0.6355741800445532, 176.44049153684176 0.03364155370901842, 211.50185572008604 -0.1625357275735042 M-0.8017470921110361 -0.2938832918275147 C34.63139911056962 -0.42020036060517363, 175.78236637193243 -2.1561937825458912, 210.92136728614568 -1.9997304615377836" stroke="#364fc7" stroke-width="2" fill="none"></path></g></g><g><g transform="translate(303.5000000000001 286.9999999999998) rotate(0 14.214074306190014 -36.846092145317186)"><path d="M-0.7005931332707405 0.06886388808488841 C4.2828172092636425 -12.130491634706656, 24.21918241629998 -59.84558278371891, 29.128741745650768 -72.10719569176436 M1.1324567424226553 -0.9405865160096437 C6.036636225975429 -12.952735940065857, 23.79313431590485 -61.84343695694892, 28.248285698490218 -73.76104817871936" stroke="#364fc7" stroke-width="2" fill="none"></path></g></g><g><g transform="translate(311.5000000000001 299.9999999999998) rotate(0 51.49895823448901 -30.387062983214832)"><path d="M-0.5799662545323372 0.44892746955156326 C16.528826066354913 -9.770284315447013, 86.41662305643162 -50.85510965635379, 103.57788272351027 -61.22305343598127 M1.3164127324987205 -0.36098955427296464 C18.23679973303961 -10.4034197781949, 86.26923129210559 -49.722965437717114, 102.93322568972594 -59.80273123865016" stroke="#364fc7" stroke-width="2" fill="none"></path></g></g><g><g transform="translate(183.12278735190625 224.36826386898747) rotate(0 66.83260994926098 -15.985139224678278)"><path d="M-0.37721264809370036 0.36826386898756036 C22.006974737097828 -4.822465551147863, 111.63519981230304 -27.16986032252512, 134.04243254661566 -32.33854231834414 M1.6256119823176416 -0.48400154513306926 C23.84547034921436 -5.4507730741022815, 111.00003031126849 -25.95684476094633, 132.91862752971244 -31.310513253035047" stroke="#364fc7" stroke-width="2" fill="none"></path></g></g><g><g transform="translate(437.5000000000001 186.99999999999977) rotate(0 -0.3904667947208509 -19.598029284179233)"><path d="M1.1901492163538931 0.8928226187825203 C1.0269871915380158 -5.834610601762931, -0.9637131328384081 -33.46330190946659, -1.3593687489628792 -40.08888118714094 M0.35583882560022184 0.31595054830424507 C0.12399544894384851 -6.239017364826674, -1.6582813965311896 -31.777958623714127, -1.9710828057955951 -38.598118559168654" stroke="#364fc7" stroke-width="2" fill="none"></path></g></g><g><g transform="translate(281.5 59) rotate(0 1.4621578655624603 20.1331068471074)"><path d="M0.7931988760828972 -1.097052602469921 C1.1269016787409782 5.604267839094004, 2.6681247755885122 34.51770909974972, 3.1738261744379996 41.36326629668474 M-0.24951044331304728 0.9413908358942717 C-0.1611349580716342 7.77777225748015, 1.6927714138198642 32.795583165340744, 2.317039452390745 39.431406353665515" stroke="#364fc7" stroke-width="2" fill="none"></path></g></g></svg>