<svg version="1.1" xmlns="http://www.w3.org/2000/svg" viewBox="0 0 612.25 214" width="612.25" height="214">
  <!-- svg-source:excalidraw -->
  
  <defs>
    <style>
      @font-face {
        font-family: "Virgil";
        src: url("https://excalidraw.com/Virgil.woff2");
      }
      @font-face {
        font-family: "Cascadia";
        src: url("https://excalidraw.com/Cascadia.woff2");
      }
    </style>
  </defs>
  <rect x="0" y="0" width="612.25" height="214" fill="#ffffff"></rect><g transform="translate(190.25 60) rotate(0 56 51.5)"><path d="M16.662866744230314 14.48480907475846 C16.662866744230314 14.48480907475846, 16.662866744230314 14.48480907475846, 16.662866744230314 14.48480907475846 M16.662866744230314 14.48480907475846 C16.662866744230314 14.48480907475846, 16.662866744230314 14.48480907475846, 16.662866744230314 14.48480907475846 M2.5552747027717686 36.451669698550205 C6.171832463576095 32.192152641883354, 12.880082472476982 21.96939005054683, 29.70604170506131 6.541619995945332 M1.7009502101458764 37.35408615410964 C10.357360226554105 28.337255070464238, 18.057221237846726 19.651788185384223, 29.28616572284382 6.708082375453053 M4.762883852021744 41.61265950741735 C10.542878109034824 32.14993556555086, 20.46516623307546 24.376298864661273, 36.14415800560909 4.85262423434194 M3.4686151219252253 39.96678901834902 C12.5285656854399 31.217052987054842, 21.49354101439907 21.17999550481924, 35.044527795991776 4.6027757968464105 M4.9726089593441465 47.05335537323699 C10.23044878359795 38.14672886823469, 21.42433587873964 30.546055153182024, 43.05520759400106 2.88656196118702 M5.03751880214077 46.31637700905994 C14.610278705524395 34.5941551650238, 25.697531581277048 22.097171928667553, 40.77419523492581 4.138977039879158 M4.924119352251232 53.591669678532334 C23.05610433624594 34.62053232747448, 38.94056294923152 12.99221750247029, 46.19643792274947 3.9750174340037816 M3.946921642757893 53.281034725562485 C18.233632053749684 36.51060515733936, 31.28816606252211 22.19540279834007, 46.17751436911131 4.516159766371381 M4.171537483255271 59.51231168082658 C17.621217296881525 42.03507823188246, 32.41864187593752 26.39762502629899, 53.639931511385576 3.613290945760969 M5.125732473241989 59.45867332967672 C18.642749823131126 43.14597826345822, 30.903679981567663 30.419037453884762, 52.62811190753265 4.069193361088697 M4.115643784915999 66.0278354137568 C21.265696264678116 45.836941752689576, 38.72932278216432 28.567024854079364, 56.39722400444063 3.63847966442734 M3.4559634156059182 66.59672844683661 C17.011928572202983 50.68439290023095, 29.998726648661865 33.62329047098236, 59.326762996674205 3.4151737712967396 M7.157262104698198 69.64549598373235 C22.718972085151727 49.58809353997119, 36.95125049298871 34.281520781624366, 64.38786320043639 1.1622680527488711 M6.457365319267588 68.92776646274835 C24.014783994968376 48.406712923078786, 41.939839367220316 28.46688173235202, 63.801200249510856 2.3549639265383604 M8.920402038190083 73.21306991505858 C29.861288988860622 47.82221286651513, 54.87799028364398 19.177122889927297, 67.81555487794206 4.78668534958539 M7.041820094268338 74.18405486851421 C31.175710603905713 49.72318928986166, 52.28114997933223 23.832545117768632, 68.81350957156495 3.0577012199702622 M9.341998537903933 77.75745396525875 C23.890268074354935 61.165917966453634, 37.68377562370337 45.31383651354894, 71.69731211446992 3.989800187460112 M10.134330320073573 76.40491107595429 C26.00777142230443 58.73168822615722, 40.004352042098716 43.117466150909294, 73.42052947980187 5.415242125912535 M12.767762594380471 80.47397050752431 C33.32496009506754 55.985492449496526, 54.75532690330371 34.336996219777845, 77.23960111253224 5.341478073896241 M13.30011992667714 79.89475780005694 C32.22393403089136 56.98625125902807, 52.110723025899595 35.00016660718889, 77.88124692868702 6.226669681185257 M15.23285832316045 84.14973879004685 C31.006401480130847 68.66720336777335, 45.26583323373819 48.23993139772724, 82.52660508367926 9.209719712308086 M13.556561281572918 83.6152443183106 C35.78511102675598 60.64878521372149, 56.65442747568615 36.43567315197653, 80.87631119422376 7.873381805999614 M17.74258005175613 88.58704619534954 C36.19201529384961 65.83111194417378, 53.31069630293265 44.44079785260189, 85.08119648042322 7.410484360218824 M17.18510227672629 86.57736773003533 C36.2204666968756 64.40362014235893, 57.92540518340932 39.55568433103332, 85.60025610587746 8.937664662175656 M19.648498145708253 90.81910572162391 C43.47697866030482 61.14119716586462, 68.70358297275074 36.465595380734754, 88.58502379330487 10.178156890819992 M18.638662154631128 91.02598043771954 C42.932516666126695 63.14174852954737, 67.37252901719611 35.79955172232797, 89.012836843642 9.141909714701796 M21.89731318252909 94.26929850139317 C46.32003782540759 65.47392666498797, 70.30641906415443 39.83095304405465, 94.15918863786496 11.588919052303112 M22.32173568225282 93.5677826656833 C44.61024135002711 68.65551755452336, 64.54881700560186 45.70349407294443, 92.65095702501125 11.740734991066432 M28.407001777759376 92.96693128284883 C49.27134071788222 67.25133020669354, 71.48878843780054 44.855289741469996, 95.67674575464423 15.248249467859715 M27.497788977085236 94.35582994141501 C42.34813028273319 76.16321336022328, 57.10324371575888 59.45902048850098, 94.47241870497908 15.177235081257969 M30.691434642949346 95.7253172694052 C52.23357054284601 67.75802422203714, 76.4261713368301 43.241259569380915, 99.04338009615495 19.71429489501299 M31.445127565131727 95.23636393512584 C57.23742022364495 65.79864520745042, 84.12584012773618 35.13676945516474, 97.66784946301087 19.47510239709647 M35.79711270162077 98.81043779880824 C51.76890427454259 77.05552945669561, 68.88463888589231 56.891602283428625, 98.22961168192836 23.958918126731696 M34.92488249686719 97.38622413885864 C57.16791183597177 70.51526561734539, 79.41761683871766 45.82608049320906, 99.224157258091 21.66842507334757 M38.99143097330489 98.64728066402671 C61.80980669085383 71.69934078015673, 84.16855339186588 47.391526185271836, 101.89541365649572 25.54577883098458 M37.400524231275995 99.98793618737903 C54.53379713902679 79.96964219233729, 72.01936948173771 60.587476253977954, 102.08039848670384 24.948517807276893 M41.73123760253296 102.75263053302938 C68.06508778455992 72.96890432630633, 91.80303722244714 46.040604233700854, 105.35877131837879 29.56312397051763 M42.53767166484252 102.13125227795267 C66.20219164487975 72.49873980895221, 91.44775390032612 42.8361711286149, 105.62758701182429 27.565462278427297 M46.9753338588362 103.42256894878494 C69.05810460173305 75.88558384602958, 90.74713964290244 50.05325627303297, 109.28394600412778 31.330126123745117 M46.047842131551114 102.46940117034512 C63.935809392338726 82.38553435840495, 81.91414031989191 61.811679652433156, 107.92820804695569 30.503195469509933 M50.46515122371743 103.1558455885939 C64.81705063856549 90.90759813783508, 74.43812508234717 75.75603593587437, 110.93032926226448 33.55612600341304 M50.50037848985771 103.61120944615377 C75.41769075074865 75.29886299720344, 98.84886057163436 48.50398423040249, 109.49632233007293 34.60750218506767 M57.476661100745844 103.88847406631606 C77.06933115356733 79.63934178274772, 97.95006922781465 55.36858507747024, 108.87252965034861 39.31109951815847 M56.60560883278464 103.32444731103527 C70.67951329979238 85.69773358637892, 86.59377797522114 68.89584779134086, 111.54890292068887 40.52523211303446 M60.66164219243372 100.87000738947461 C79.68648714588447 80.80089577488094, 98.85775768186038 60.73095715166934, 112.87346302488292 46.16606197028182 M62.5873638647973 103.3808540518097 C73.13023394767022 89.6859027429405, 85.04360072858883 76.07575344238336, 110.4101754897594 46.813454022507585 M68.79959021033126 103.89813376148388 C82.52540802510953 84.63813080091032, 102.215279939405 63.86478817351332, 111.29232128039867 52.67295427775185 M67.46613661189902 102.75948383868828 C80.31235341166708 88.88572460935531, 91.6004290441858 72.50723319781777, 110.45083705876887 51.38809198575269 M74.01474913594127 102.21379035964426 C85.92025530233602 87.87458067751209, 96.62049045920135 71.43901408277668, 112.36524943642713 57.78801423353731 M73.80736368254573 101.51056950326827 C86.11028487794212 88.92102816666115, 96.63324045078288 76.01992138292069, 111.89998308670171 56.91604663753539 M85.12043413374754 96.45279207581068 C90.11594510741767 87.82286915030424, 99.14075139308217 80.75875402414736, 114.17390466649005 63.80456692538417 M83.59699818067433 94.67590127920145 C90.01941796304027 88.54179066399864, 98.54630992440877 80.30804265008894, 112.34491649903276 62.71673559489853" stroke="#15aabf" stroke-width="0.5" fill="none"></path><path d="M33.948551612700406 2.9880952315184928 C41.99351702174434 -0.9458198391812775, 53.93821806234305 -0.39744447348630274, 63.52452639191797 0.8784645248147669 C73.11083472149289 2.1543735231158365, 84.00719230456129 5.234672938025418, 91.46640159014996 10.64354922132491 C98.92561087573863 16.052425504624402, 105.08437259365277 25.04545547790049, 108.27978210545001 33.331722224611724 C111.47519161724725 41.61798897132296, 112.48249628755872 51.53025815435936, 110.63885866093341 60.3611497015923 C108.7952210343081 69.19204124882525, 103.59962149361176 79.5203227078171, 97.21795634569813 86.31707150800938 C90.83629119778449 93.11382030820165, 81.3100469059481 98.67637854545782, 72.34886777345159 101.14164250274595 C63.387688640955076 103.60690646003408, 52.75470559455154 103.29292498500735, 43.450881550719075 101.10865525173818 C34.14705750688661 98.92438551846902, 23.388668013205766 94.1535510588849, 16.525923510456785 88.03602410313098 C9.663179007707804 81.91849714737707, 4.779697886019354 72.6842923364732, 2.27441453422518 64.40349351721466 C-0.23086881756899524 56.122694697956106, -0.8509403635152282 46.61014408907533, 1.4942233996917338 38.35123118757968 C3.8393871628986957 30.09231828608403, 10.065252304042186 20.7829283759942, 16.34539711346695 14.850016108240752 C22.625541922891717 8.917103840487304, 34.669727187067565 4.884780634328257, 39.175092256240326 2.7537575810589843 C43.68045732541309 0.6227345277897123, 43.04420585067454 1.4031649159457777, 43.37758752850352 2.0638777886251205 M82.42399706778185 6.314329000832643 C91.03970419198757 9.653311544787117, 100.62306041784406 16.90572489358727, 105.31387287767521 24.476617302124723 C110.00468533750636 32.047509710662176, 110.53409317107116 43.111914603301074, 110.56887182676877 51.739683452057356 C110.60365048246638 60.36745230081364, 109.95204199377257 68.68317823193418, 105.52254481186083 76.24323039466242 C101.09304762994908 83.80328255739066, 92.54381295014005 92.8589168648162, 83.99188873529835 97.09999642842683 C75.43996452045664 101.34107599203747, 64.01165161689158 102.06133512958047, 54.21099952281062 101.68970777632626 C44.41034742872966 101.31808042307205, 33.22967094701753 99.37161707934047, 25.18797617081258 94.87023230890156 C17.146281394607627 90.36884753846266, 10.092601886899509 82.59301615553443, 5.960830865580903 74.68139915369284 C1.8290598442622956 66.76978215185125, -0.3044245350263104 56.15876473365995, 0.3973500429009391 47.40053029785201 C1.0991246208281886 38.642295862044065, 4.5113125323151335 29.467911331796248, 10.1714783331444 22.131992538845175 C15.831644133973665 14.796073745894102, 25.591068775766395 7.033999826255263, 34.35834484787654 3.3850175401455758 C43.12562091998668 -0.2639647459641119, 54.78900104657725 -0.2278294353897981, 62.77513476580526 0.23809882218704814 C70.76126848503328 0.7040270797638943, 78.83816558347142 5.042247508587599, 82.27514716324464 6.180587085606653 C85.71212874301786 7.3189266626257075, 83.82090660635627 6.4944926263822005, 83.39702424444457 7.068136284301374" stroke="#0b7285" stroke-width="1" fill="none"></path></g><g transform="translate(403.25 59) rotate(0 54.5 53)"><path d="M5.571250340474194 30.01826090765577 C5.571250340474194 30.01826090765577, 5.571250340474194 30.01826090765577, 5.571250340474194 30.01826090765577 M5.571250340474194 30.01826090765577 C5.571250340474194 30.01826090765577, 5.571250340474194 30.01826090765577, 5.571250340474194 30.01826090765577 M2.9631413002466083 35.92711433103742 C12.969259251863742 28.169088295082876, 17.02334501925769 22.40980857990281, 26.302191372452633 12.289818434109687 M3.8655577558060408 38.47184064040395 C12.731209712670054 28.278213696396918, 21.92956809996625 18.703429110577403, 26.468653751960353 11.595339651284515 M3.171610530886486 44.885680797915086 C15.547518322421798 31.835871523423876, 29.732942611790506 14.969249875349586, 41.34511781894406 0.8302017461260576 M1.5257400418181568 45.07130298058979 C11.700881262764188 35.49608064332641, 20.516112002235484 25.04125482840903, 41.09526938144853 0.39627539941424317 M0.7395980488200387 52.53159119865322 C16.757589241503993 37.436117348842174, 34.1203937124583 18.930866169998822, 44.760673158580815 1.2413557909029613 M0.0026196846429904497 53.84897400835925 C10.690914583501185 42.28346123936632, 20.640442534280655 29.129217612952523, 46.01308823727295 2.569619339105774 M1.9307895709590568 60.957498696446436 C13.345627717384307 46.98041510045147, 22.254878311590645 32.16699736449195, 51.886805273179746 1.5239160544072803 M1.6201546179892077 60.297683888860064 C20.12298928222009 37.171018522966634, 41.23461911002687 12.496746964753875, 52.427947605547345 1.0054417707791146 M3.9150773993102668 63.555105381717084 C21.270384893545476 42.65865805501984, 40.50374454376999 19.031403418267104, 56.90669639772861 0.8277435916158211 M3.8614390481604097 64.3782570269677 C13.31204873877751 50.84044054920179, 26.38494115677892 36.83116859680704, 57.36259881305634 1.6932338763641965 M4.984827797851899 68.51643772921916 C23.06943953268845 47.25311840975958, 44.10891038468369 21.605250238421647, 62.313502729186645 0.9155238418370537 M5.553720830931702 67.55203752438929 C24.270691320686858 45.19305790699304, 41.944956035027744 24.43258978406422, 62.090196836056045 1.7167565346226148 M6.930262934552708 71.65576575848394 C17.77175374063198 55.34225046965245, 33.26870089604047 42.4811250623045, 65.97361831052261 2.4941049496022316 M6.212533413568714 72.13405834010922 C29.594078216865096 45.25793341537392, 53.56018151034653 17.25351754752326, 67.1663141843121 3.116628642038748 M8.07090185238146 74.47681261404267 C25.288902975846774 57.53669569821297, 39.323279564448505 37.040206683902454, 73.47023405970526 3.7722881844426084 M9.041886805837088 76.89150087061188 C22.668808722504664 61.87450223258054, 34.77005691816587 45.93055442368159, 71.74124993009013 1.9793675325969744 M10.287001440316374 80.23996414564937 C30.290190405974194 56.99591504278091, 50.90279237186725 33.669549310831755, 73.82266068273182 4.037456681557742 M8.934458551011915 81.64215453010439 C26.408784281748222 60.014648159194806, 46.01749485685902 39.43094933179142, 75.24810262118424 5.545267718449978 M11.331292549307229 84.25593058738974 C25.18566393660088 68.35981031319976, 41.77689416674193 51.787320383257644, 77.73441896353306 7.420979639587799 M10.752079841839851 85.0793284296256 C37.0208754617967 54.59554114861865, 64.10715041604468 25.39889672446092, 78.61961057082208 6.505055087691048 M13.892243876313273 88.21708487857225 C30.53497257554755 70.27710643588757, 42.148743101416486 55.7441061793106, 83.40803141608723 9.267227283286807 M13.35774940457702 87.6344396979371 C27.609033012648716 72.79561148586177, 40.72966511602973 56.751598347334905, 82.07169350977875 8.90015186702734 M17.969443906322255 91.01938182417372 C44.1472872975537 57.71195277043664, 71.73388954683509 28.266233468003065, 83.51281742937257 11.672522962408785 M15.959765441008045 89.83018264196882 C42.89844019633267 61.26236528160954, 67.25569399955565 31.228329657886277, 85.03999773132941 12.192878720665995 M20.497455086293414 91.5466006135026 C37.10257470177546 71.32899223732548, 58.68405401606183 49.61441527300017, 88.84057035433887 14.533514411039427 M20.70432980238904 91.59602126548235 C43.36682902777783 66.22922218900253, 66.50746079549516 40.6267648098973, 87.80432317822067 13.846076009645834 M25.096959651214497 94.51110230153571 C37.881397571393435 78.42613894106216, 53.82100868788562 61.35995632088674, 91.40064430097381 16.142640809155537 M24.395443815504628 95.64019675040763 C44.65792894790638 70.74681903103084, 66.85782666192759 46.043619194826235, 91.55246023973713 16.449820853396787 M26.35467282703528 96.48336274735874 C47.326295149493085 71.875587624314, 71.51711664525894 48.049705677341656, 95.3559263702272 16.46295614084282 M27.743571485601457 96.01051039528346 C41.265784251124366 78.97486150663099, 56.22558115690599 62.28934480758137, 95.28491198362545 18.52750048795768 M30.262370598743473 97.24214925594848 C47.900366469640915 76.4434583725515, 69.05907754313098 56.80325239248777, 98.14974636410575 23.987724996523625 M29.773417264464115 98.97575025703978 C45.96237414541303 81.4487584831819, 60.892217253896064 62.790146240705326, 97.91055386618923 21.92665806820399 M34.49680291329835 101.80405351661342 C59.15374077384251 70.84873636923653, 85.44767703056218 40.01894603619481, 101.37820319154024 26.486988449838087 M33.07258925334875 101.5864740894382 C50.48359876181897 79.8549398077399, 70.16972102119976 58.5493356749073, 99.08771013815611 26.09680854472898 M37.451134650640185 102.49070118321649 C50.010937148144144 86.40225874191579, 65.27390674498054 70.21469639861232, 101.2928384625184 28.885998180763025 M38.79179017399251 101.27346892329476 C51.906835214475706 86.51244797328586, 65.67232896282573 70.04400071936801, 100.69557743881072 30.499122786962587 M44.67397339176618 104.27892851595726 C58.05272530513899 86.19225383444851, 74.30071282233794 66.92948022936818, 104.39266774899949 35.785330253606915 M44.052595136689476 101.72917770826217 C62.667028682161 79.2223560918969, 81.27524971987773 58.08047131243222, 102.39500605690915 34.65779136116642 M47.80534165065461 104.07560573958973 C70.74995645051898 75.00179802031911, 95.37279777592809 51.50149670515818, 105.14350349794276 37.03751385767821 M46.85217387221479 103.71377267104755 C63.51829961282701 85.02259963044295, 79.66567855741874 66.89322037398296, 104.31657284370758 36.26790327110205 M52.92023590325523 105.27542746319965 C68.90054317944553 86.56620407140117, 81.94626710201166 72.00863954159439, 105.69727794433595 43.32366004795374 M53.37559976081509 104.14419573518977 C64.05531248349746 90.68702460844392, 76.267692277439 76.1576038320579, 106.74865412599058 42.30332469869943 M57.623713384555764 104.35637974176377 C72.73747685817433 86.61808552916861, 87.78630845365511 69.46276022722631, 108.17195631412883 44.1829946835192 M57.05968662927497 104.22087558261872 C67.59841734869481 92.27205092789117, 78.99365327459306 80.20142355575287, 109.38608890900483 45.577481942497386 M59.986864320505994 104.15456343436782 C73.60971343800773 90.90967043743642, 87.27402401563357 80.04359562896241, 109.12238750533763 49.62716381001967 M62.49771098284109 105.23380101187323 C71.62917165531181 94.05176947221, 80.89060265112128 81.14854999428019, 109.7697795575634 51.88891680009412 M66.32978066710314 105.96908042621135 C76.47865966824642 96.82043566358071, 85.1178438836855 83.48963130860817, 109.06868952290259 58.13208995631812 M65.19113074430754 108.198657160106 C82.46416067947641 87.59858934695583, 97.22909127010627 68.96589139314966, 107.78382723090343 58.54439286480574 M74.71811863222102 103.2897611845979 C84.40492702221177 90.27966050905997, 91.99666259015831 81.69775726854077, 108.27921821777349 64.74285835650022 M74.01489777584503 104.11580305907367 C82.50869995267165 93.94216843168029, 90.6930855088084 85.56008190451087, 107.40725062177157 63.99503174767102 M84.31276877690432 98.50566174584091 C90.9054579580046 92.02858359616833, 99.07939067235716 82.79857589607766, 108.48989019993803 70.65034569054282 M82.5358779802951 98.21001862204284 C92.45922674618878 90.58876920101544, 100.29965107969852 79.9947932383609, 107.40205886945239 71.94419181811995" stroke="#fd7e14" stroke-width="0.5" fill="none"></path><path d="M41.03799659938467 0.6981827318026674 C49.3620186278939 -1.8849498752364795, 62.26926375392517 -0.30994266227160105, 71.1202810234333 2.4596579563979404 C79.97129829294141 5.229258575067481, 88.09413494573819 10.644312819165215, 94.1441002164334 17.315786443819917 C100.19406548712861 23.98726006847462, 105.6085387043811 33.67041139488569, 107.42007264760458 42.48849970432615 C109.23160659082806 51.306588013766614, 107.9506018627473 61.76194499867742, 105.0133038757743 70.22431630046268 C102.07600588880129 78.68668760224793, 96.7475686042502 87.37822323949972, 89.7962847257665 93.26272751503768 C82.84500084728279 99.14723179057565, 72.69637715968366 104.16837224396238, 63.30560060487202 105.53134195369047 C53.914824050060375 106.89431166341856, 42.26030506063289 104.81855878248818, 33.45162539689665 101.44054577340619 C24.642945733160413 98.06253276432419, 16.097104998481285 92.44616110054194, 10.453522622454585 85.2632638991985 C4.809940246427886 78.08036669785507, 0.43085430917655165 67.51959032318399, -0.4098688592635398 58.34316256534559 C-1.250592027703631 49.16673480750718, 1.3561755333236958 38.27059202494341, 5.409183611814036 30.204697352168072 C9.462191690304376 22.138802679392736, 17.432550654012115 14.753666103873911, 23.908179611678502 9.94779452869357 C30.38380856934489 5.141922953513229, 40.59086475547577 2.6249504239520185, 44.26295735781236 1.3694679010860256 C47.93504996014895 0.11398537822003263, 45.92184234929791 1.4477768302772476, 45.940735225698035 2.414899391497613 M52.920888676458404 1.3703157842782474 C61.772478004650715 0.09374490725573748, 72.1944251421946 0.8130094899739317, 80.38157293450179 5.168368166449554 C88.56872072680898 9.523726842925175, 97.50411959902274 19.284301812261845, 102.04377543030148 27.50246784313198 C106.58343126158022 35.72063387400212, 107.70206872076233 45.6167392199362, 107.61950792217417 54.477364351670374 C107.536947123586 63.33798948340455, 106.35290494982554 73.19329172485116, 101.54841063877248 80.66621863353703 C96.74391632771942 88.13914554222289, 87.06519322683226 95.08646572685002, 78.79254205585582 99.31492580378554 C70.51989088487937 103.54338588072106, 60.94433654132491 106.35717990660493, 51.91250361291383 106.03697909515017 C42.88067068450275 105.71677828369542, 32.3956516960716 102.4118870648605, 24.601544485389343 97.39372093505699 C16.807437274707084 92.37555480525349, 9.172051883868829 83.9079401251035, 5.147860348820274 75.92798231632915 C1.123668813771718 67.9480245075548, -0.22641000888186724 58.46533918323881, 0.4563952750980107 49.51397408241094 C1.1392005590778886 40.56260898158307, 3.847851896899658 29.779275375913148, 9.244692052699541 22.219791711361914 C14.641532208499424 14.66030804681068, 25.580360425141834 7.607983061852368, 32.83743620989731 4.157072095103544 C40.09451199465279 0.7061611283547209, 49.4596253351462 2.0365389648163528, 52.787146761232414 1.5143259108689762 C56.11466818731863 0.9921128569215997, 52.95569710308921 0.48570096490566195, 52.80256476641462 1.0237937714192853" stroke="#fd7e14" stroke-width="1" fill="none"></path></g><g transform="translate(220.25 97) rotate(0 27 12.5)"><text x="0" y="18" font-family="Virgil, Segoe UI Emoji" font-size="20px" fill="#000000" text-anchor="start" style="white-space: pre;" direction="ltr">17,600</text></g><g transform="translate(427.25 97) rotate(0 29 12.5)"><text x="0" y="18" font-family="Virgil, Segoe UI Emoji" font-size="20px" fill="#000000" text-anchor="start" style="white-space: pre;" direction="ltr">2400</text></g><g><g transform="translate(187.18799249416088 97.5) rotate(0 -9.674412073224119 -36.3141629560817)"><path d="M1.0113198269158603 -0.9806349445134401 C-6.607916340929431 -5.868346799289187, -41.033770790357856 -18.22289501118163, -46.64880890109934 -29.886387734487652 C-52.26384701184083 -41.54988045779368, -41.966287632019714 -65.03923256881535, -32.67890883753307 -70.96159128434957 C-23.39153004304643 -76.88394999988378, -0.8821745176939757 -72.67328748789926, 9.075463865820526 -65.42054002769291 C19.033102249335027 -58.16779256748656, 24.109895255391482 -33.71148961869379, 27.066921463553932 -27.445106523111463 M0.0831240067072212 1.1189277642779052 C-7.092534737446322 -3.592965066054216, -38.92238364161622 -17.023838103829576, -44.477292834067576 -28.814316043872388 C-50.03220202651893 -40.6047939839152, -42.110312840727616 -63.670082107800994, -33.246331148000884 -69.62393987597898 C-24.382349455274152 -75.57779764415696, -1.6502708935132713 -71.59344466111934, 8.706597322292833 -64.5374626529403 C19.06346553809894 -57.48148064476128, 25.722986749478608 -33.7719785388497, 28.89487814683574 -27.288047826904805" stroke="#000000" stroke-width="1" fill="none"></path></g><g transform="translate(187.18799249416088 97.5) rotate(0 -9.674412073224119 -36.3141629560817)"><path d="M7.31776530124478 -51.41550518436999 C11.801852418048718 -44.258164391937754, 17.77479835140126 -41.86213725253602, 28.193978100680884 -28.434175767991693 M9.60446051057659 -50.35105552854658 C14.59228263540175 -43.531289929354294, 18.71145804173527 -38.44724646169452, 28.300448205919142 -27.015725811999292" stroke="#000000" stroke-width="1" fill="none"></path></g><g transform="translate(187.18799249416088 97.5) rotate(0 -9.674412073224119 -36.3141629560817)"><path d="M26.389490049430044 -58.991078926027924 C26.60014914344006 -49.98958415992661, 28.335027092760484 -45.91013315828348, 28.193978100680884 -28.434175767991693 M28.676185258761855 -57.926629270204515 C28.590751223357653 -49.24586601166709, 27.69582162960256 -42.17014519557026, 28.300448205919142 -27.015725811999292" stroke="#000000" stroke-width="1" fill="none"></path></g></g><g><g transform="translate(525.5412971897133 90.5) rotate(0 -5.685111679225315 -36.92263226075619)"><path d="M-17.309842132053667 -1.0294066082686186 C-9.340317834720317 -5.968348488335808, 24.943727990159683 -16.765084748590986, 30.927821990626708 -28.622331453487277 C36.911915991093736 -40.47957815838357, 28.34354472687292 -65.99532928578554, 18.594721870748486 -72.17288683764636 C8.845899014624052 -78.35044438950717, -16.78857669833812 -73.06032838535806, -27.5651151461199 -65.68767676465214 C-38.34165359390168 -58.315025143946215, -42.91842071579056 -34.515383967881405, -46.06450881594219 -27.93697711341083 M-15.623814207262688 1.0445509770512582 C-7.230859922498764 -3.7454676418503126, 27.595589240336707 -18.460677453378835, 33.174422966393486 -30.546630215346813 C38.753256692450265 -42.63258297731479, 27.96809191254723 -65.73812960118055, 17.84918814907798 -71.4711655947566 C7.730284385608725 -77.20420158833265, -17.21260113026711 -72.18368202974399, -27.53899961442203 -64.94484617680311 C-37.86539809857695 -57.70601032386224, -41.122188869204685 -34.38791742136081, -44.10920275585153 -28.03815047711134" stroke="#000000" stroke-width="1" fill="none"></path></g><g transform="translate(525.5412971897133 90.5) rotate(0 -5.685111679225315 -36.92263226075619)"><path d="M-47.192365616053664 -59.48428023284474 C-44.24825691157015 -50.339968723794904, -46.48609959435991 -43.51307423515891, -45.255330696938415 -28.77999468229711 M-46.127915960230254 -57.434943981042 C-45.238905923336276 -51.91714840151846, -45.7436235538205 -45.3090432392723, -43.836880740946015 -28.78216897312552" stroke="#000000" stroke-width="1" fill="none"></path></g><g transform="translate(525.5412971897133 90.5) rotate(0 -5.685111679225315 -36.92263226075619)"><path d="M-27.608850701561686 -53.35191152412298 C-29.677390363252467 -45.921109490965364, -36.876199861707434 -40.64768881937533, -45.255330696938415 -28.77999468229711 M-26.544401045738276 -51.30257527232024 C-29.959317645567474 -47.017922231481535, -34.809980977481075 -41.770703587596145, -43.836880740946015 -28.78216897312552" stroke="#000000" stroke-width="1" fill="none"></path></g></g><g><g transform="translate(273.25 60) rotate(0 75.53812133346685 -8.14271399696355)"><path d="M-1.0294066082686186 -0.8863877344876527 C12.864984844997524 -4.216547124460339, 59.23491525140901 -21.705899235482015, 84.37766854651272 -20.96159128434956 C109.52042184161644 -20.217283333217104, 138.83800404754777 -0.5066208212325969, 149.82711316235364 3.579459972307086 M0.6310161930508911 1.2626547595672308 C14.3119418704696 -1.773970561940223, 58.38212688944613 -19.97291954588766, 83.6278990698047 -19.404001457411795 C108.87367125016327 -18.83508336893593, 141.0106004568127 0.7046508072627096, 152.1056492752023 4.67616329042241" stroke="#000000" stroke-width="1" fill="none"></path></g><g transform="translate(273.25 60) rotate(0 75.53812133346685 -8.14271399696355)"><path d="M120.72734125363138 2.870351089115962 C133.73902213779246 1.4784079405124584, 144.46436187313518 3.2229048706527363, 151.36380507001653 3.1145347680710262 M122.77667750543412 2.3805618592982736 C128.590120158319 2.3308111663409625, 135.4690669503265 3.835376463413989, 151.36163077918812 4.159342190045864" stroke="#000000" stroke-width="1" fill="none"></path></g><g transform="translate(273.25 60) rotate(0 75.53812133346685 -8.14271399696355)"><path d="M129.28820003294302 -15.779895540527356 C138.85773373532504 -10.078422722451098, 146.2933353186289 -1.1670714539654092, 151.36380507001653 3.1145347680710262 M131.33753628474577 -16.269684770345044 C135.29096862155652 -12.058029345089338, 140.18824886076158 -6.236307218283908, 151.36163077918812 4.159342190045864" stroke="#000000" stroke-width="1" fill="none"></path></g></g><g><g transform="translate(279.37250292302633 175.21236970963173) rotate(186.6816878717039 68.38787375243487 -14.797658318985327)"><path d="M-0.8863877344876527 0.37766854651272297 C8.195731654020188 -4.345101442178151, 30.420660890892766 -25.962231409732357, 53.5120813865336 -29.366026540413863 C76.60350188217444 -32.76982167109537, 123.64122067978984 -21.557039563256122, 137.66213523935738 -20.045102237576312 M0.8491199755668641 -0.46965941190719596 C9.862384395526883 -5.00061617246773, 29.946444923312086 -25.341202496547357, 52.58420049862288 -28.44436687895692 C75.22195607393367 -31.547531261366483, 122.49788903294508 -20.548964405926682, 136.6756534274316 -19.08864570636458" stroke="#000000" stroke-width="1" fill="none"></path></g><g transform="translate(279.37250292302633 175.21236970963173) rotate(186.6816878717039 68.38787375243487 -14.797658318985327)"><path d="M107.83927469398202 -13.388579387429246 C111.73517694255052 -15.166082494188851, 118.9756733783737 -16.43726641297868, 135.1140249050802 -20.459048130029508 M107.34948546416433 -14.004491917069146 C117.33981547634536 -16.274032509525743, 129.04248158973238 -18.48207830971167, 136.15883232705505 -18.55998198263503" stroke="#000000" stroke-width="1" fill="none"></path></g><g transform="translate(279.37250292302633 175.21236970963173) rotate(186.6816878717039 68.38787375243487 -14.797658318985327)"><path d="M111.11018423752824 -33.6474330851037 C114.11832265732544 -31.02698585603819, 120.64484357998006 -27.876058654836093, 135.1140249050802 -20.459048130029508 M110.62039500771056 -34.2633456147436 C119.284158205533 -29.115027340110117, 129.79218883730832 -23.923924639911903, 136.15883232705505 -18.55998198263503" stroke="#000000" stroke-width="1" fill="none"></path></g></g><g transform="translate(334.25 10) rotate(0 18 12.5)"><text x="0" y="18" font-family="Virgil, Segoe UI Emoji" font-size="20px" fill="#000000" text-anchor="start" style="white-space: pre;" direction="ltr">0.12</text></g><g transform="translate(338.25 179) rotate(0 21.5 12.5)"><text x="0" y="18" font-family="Virgil, Segoe UI Emoji" font-size="20px" fill="#000000" text-anchor="start" style="white-space: pre;" direction="ltr">0.36</text></g><g transform="translate(564.25 33) rotate(0 19 12.5)"><text x="0" y="18" font-family="Virgil, Segoe UI Emoji" font-size="20px" fill="#000000" text-anchor="start" style="white-space: pre;" direction="ltr">0.64</text></g><g transform="translate(10 80.5) rotate(0 30.5 12.5)"><text x="0" y="18" font-family="Virgil, Segoe UI Emoji" font-size="20px" fill="#000000" text-anchor="start" style="white-space: pre;" direction="ltr">Day 1:</text></g></svg>