<svg version="1.1" xmlns="http://www.w3.org/2000/svg" viewBox="0 0 346 255" width="346" height="255">
  <!-- svg-source:excalidraw -->
  
  <defs>
    <style>
      @font-face {
        font-family: "Virgil";
        src: url("https://excalidraw.com/Virgil.woff2");
      }
      @font-face {
        font-family: "Cascadia";
        src: url("https://excalidraw.com/Cascadia.woff2");
      }
    </style>
  </defs>
  <rect x="0" y="0" width="346" height="255" fill="#ffffff"></rect><g transform="translate(146 99) rotate(0 12 12)"><path d="M6.649971648231075 1.300588161859359 C8.598328756032931 -0.07816031935921397, 12.233751892437459 -0.956862038606015, 14.771955845471004 -0.186909021472065 C17.310159798504547 0.583043995661885, 20.4790323263131 3.8058592720213995, 21.87919536643234 5.9203062646630595 C23.279358406551584 8.03475325730472, 23.45242814341426 9.929635298245039, 23.172934086186448 12.499772934377894 C22.893440028958636 15.06991057051075, 21.975010698014508 19.309564880992045, 20.20223102306548 21.341132081460188 C18.42945134811645 23.37269928192833, 14.868162986877474 24.463756966762478, 12.536256036492281 24.689176137186756 C10.204349086107088 24.914595307611034, 8.08422414902167 24.141897489369555, 6.210789320754324 22.693647104005862 C4.337354492486978 21.24539671864217, 2.1072646069139944 18.59614120984429, 1.295647066888204 15.999673825004596 C0.48402952686241385 13.403206440164903, 0.1791197329410441 9.709395448509174, 1.3410840805995825 7.114842794967702 C2.503048428258121 4.52029014142623, 6.929988733337386 1.563686064823184, 8.267433152839434 0.43235790375576677 C9.604877572341481 -0.6989702573116505, 9.349939564923744 0.19862556004521478, 9.365750597611868 0.3268738285631976 M11.415779134612324 -0.7895117604782893 C13.458139682542217 -0.7375508246993814, 16.582406641220835 2.168735267025049, 18.557286902482033 3.704949795816857 C20.53216716374323 5.241164324608665, 22.3926727821363 6.005823945987895, 23.265060702179508 8.427775412272556 C24.137448622222713 10.849726878557217, 25.174084309000275 15.689634026457416, 23.79161442274126 18.236658593524826 C22.40914453648225 20.783683160592236, 17.489393879664533 22.96495534221519, 14.970241384625435 23.709922814677014 C12.451088889586337 24.454890287138838, 10.803786885336754 23.767397798841085, 8.676699452506673 22.706463428295766 C6.549612019676593 21.645529057750448, 3.6199277933209766 19.489124432817665, 2.2077167876449533 17.34431659140511 C0.79550578196893 15.199508749992555, -0.08766233479567526 12.200690126402968, 0.2034334184505333 9.837616379820433 C0.4945291716967419 7.474542633237899, 2.196030565821612 4.622829621984503, 3.9542913071222046 3.1658741119099076 C5.712552048422797 1.7089186018353122, 9.299736821046597 1.6148074876756358, 10.75299786625409 1.0958833193728612 C12.206258911461582 0.5769591510700867, 12.328540721475312 -0.18540523500758285, 12.673857578367164 0.05232910209326036" stroke="#cccccc" stroke-width="1" fill="none"></path></g><g transform="translate(92 162) rotate(0 12 12)"><path d="M7.556685048854542 1.6192361431915288 C9.522622329252764 0.6759698599578328, 12.567626158026902 0.8915980158850104, 14.943789862519514 1.5988422151283181 C17.319953567012128 2.306086414371626, 20.35600783113542 3.984114063243143, 21.813667275810214 5.862701338651375 C23.27132672048501 7.741288614059607, 24.11218152637298 10.412616017380838, 23.689746530568286 12.870365867577707 C23.267311534763593 15.328115717774576, 21.12020018935734 18.830427500774, 19.279057300982064 20.609200439832595 C17.437914412606787 22.38797337889119, 15.164126952862514 23.41473271528948, 12.642889200316631 23.54300350192927 C10.121651447770748 23.67127428856906, 6.154596123674465 22.817158913230973, 4.1516307857067645 21.37882515967132 C2.148665447739064 19.940491406111665, 1.0769065865294263 17.368094096675524, 0.6250971725104275 14.913000980571345 C0.1732877584914287 12.457907864467167, 0.22283307843148314 9.09110283782972, 1.4407743015927714 6.648266463046247 C2.6587155247540597 4.205430088262775, 6.878959185941148 1.1916509031216842, 7.932744511478157 0.25598273187051035 C8.986529837015167 -0.6796854393806634, 7.5825776941097764 0.8095514614556739, 7.763486254814829 1.034257435539205 M14.190513062890517 -0.9803968246045027 C16.440331296724633 -0.7091907805081066, 18.632024149806284 2.1680733420377756, 20.42471766407473 4.6740083959281495 C22.217411178343177 7.1799434498185235, 25.109250162665987 11.252991139079018, 24.946674148501202 14.055213498737741 C24.784098134336418 16.857435858396464, 21.314702839663102 19.67299106789144, 19.44926157908602 21.487342553880488 C17.583820318508938 23.301694039869535, 16.35053007144872 24.955993937767097, 13.754026585038718 24.94132241467203 C11.157523098628717 24.926650891576962, 6.30172920853304 22.827882583709464, 3.870240660626015 21.39931341531009 C1.438752112718991 19.970744246910716, -0.4230088304133585 18.572888602302267, -0.8349047024034277 16.369907404275786 C-1.246800574393497 14.166926206249304, 0.3527055636893561 10.701011769178878, 1.3988654286855997 8.181426227151196 C2.4450252936818435 5.661840685123513, 2.979794123528882 2.4464902881341315, 5.442054487574033 1.2523941521096909 C7.904314851619185 0.05829801608524998, 14.644208313926345 0.8883910871337563, 16.172427612956508 1.01684941100455 C17.70064691198667 1.1453077348753438, 15.055937581337128 2.060654630522245, 14.611370281755004 2.0231440953344535" stroke="#212163" stroke-width="1" fill="none"></path></g><g transform="translate(53 63) rotate(0 12 12)"><path d="M16.55360753464276 -0.2575044960608466 C19.015034032609446 0.3021655382881109, 21.946701483683043 2.9747159305160866, 23.188769939241762 5.276820233581809 C24.43083839480048 7.578924536647531, 24.69121119613459 11.053131745349303, 24.00601826799508 13.555121322333486 C23.320825339855574 16.057110899317667, 21.08262593313563 18.493867055642088, 19.07761237040471 20.288757695486904 C17.072598807673792 22.08364833533172, 14.470733975859266 24.19940092816255, 11.975936891609564 24.324465161402376 C9.481139807359861 24.4495293946422, 6.065284802609245 22.623772099061934, 4.108829864906498 21.039143094925862 C2.1523749272037502 19.45451409078979, 0.5959561087640088 17.273874088617685, 0.23720726539308146 14.816691136585947 C-0.12154157797784587 12.359508184554208, 0.6726841537922281 8.656405079401953, 1.9563368046809337 6.296045382735433 C3.2399894555696394 3.935685686068913, 5.608262420923936 1.7301768203772387, 7.939123170725315 0.6545329565868272 C10.269983920526695 -0.42111090720358435, 14.413417783156346 -0.34156096805209957, 15.941501303489215 -0.15781780000703627 C17.469584823822082 0.025925368038027002, 17.144343628165974 1.329912513362679, 17.107624292722527 1.7569919648572068 M9.52833022154654 -1.1904119352880649 C11.78680829445549 -1.306715121764924, 16.023173833069013 1.6226957105006912, 18.57606402603338 3.0820790330422874 C21.128954218997745 4.541462355583883, 23.922144130329357 5.177528320650692, 24.845671379332728 7.565887999961513 C25.7691986283361 9.954247679272333, 25.228159072803205 15.113498787752766, 24.11722752005361 17.41223710890721 C23.006295967304016 19.71097543006165, 20.797852108026753 20.54366184586621, 18.180082062835165 21.358317926888173 C15.56231201764358 22.172974007910135, 10.902071694051353 22.633929165490372, 8.410607248904096 22.30017359503899 C5.91914280375684 21.96641802458761, 4.459628108621836 21.436051380557934, 3.231295391951626 19.3557845041799 C2.002962675281416 17.275517627801868, 1.0040531078879893 12.224415938361007, 1.0406109488828346 9.81857233677079 C1.0771687898776798 7.412728735180574, 1.7031481865419045 6.576713759202923, 3.4506424379206972 4.920722894638601 C5.19813668929949 3.2647320300742795, 10.047067430048628 0.8290075873080293, 11.52557645715559 -0.11737285061513703 C13.004085484262554 -1.0637532885383032, 12.53435258651945 -1.0107705405185785, 12.321696600562476 -0.7575597329003969" stroke="#212163" stroke-width="1" fill="none"></path></g><g transform="translate(163 10) rotate(0 12 12)"><path d="M13.592746186774457 1.2327606913449856 C15.952890682757559 1.474237538901658, 19.310201444149666 3.006579570011282, 21.01402044321777 4.7138324867143435 C22.717839442285875 6.421085403417405, 23.93939441533486 8.991549763197957, 23.815660181183077 11.476278191563356 C23.691925947031294 13.961006619928755, 21.90128136383643 17.630762179364467, 20.27161503830708 19.622203056906734 C18.64194871277773 21.613643934449, 16.533599850569733 22.997805063335736, 14.037662228006987 23.42492345681697 C11.54172460544424 23.852041850298203, 7.471669155776693 23.37805401271688, 5.295989302930608 22.184913417794142 C3.1203094500845228 20.991772822871404, 1.7253066436697644 18.644362896896965, 0.9835831109304731 16.266079887280537 C0.24185957819118198 13.88779687766411, -0.013279356638807527 10.453421788096803, 0.8456481064948616 7.915215360095583 C1.7045755696285307 5.377008932094363, 3.7561671257806255 2.180866016625856, 6.137147889732487 1.0368413192732149 C8.51812865368435 -0.10718337807942624, 13.147208615957785 0.981636414923219, 15.131532690206033 1.0510671759797354 C17.115856764454282 1.1204979370362518, 17.870835391897664 1.3524576485258504, 18.043092335221974 1.4534258856123135 M13.63905635015107 0.13109650832616815 C16.317168372657978 1.0034980943931884, 21.151053086719322 3.899267774924389, 22.668683479330802 6.213402075541685 C24.186313871942282 8.52753637615898, 23.00943022840538 11.495432111430587, 22.744838705819944 14.015902312029946 C22.480247183234507 16.536372512629306, 22.9052001448905 19.78097010817239, 21.081134343818178 21.33622327913784 C19.257068542745856 22.89147645010329, 14.649338992267445 23.076845044831682, 11.800443899386005 23.347421337822638 C8.951548806504565 23.617997630813594, 5.811601272455569 24.129345051672782, 3.987763786529534 22.95968103708357 C2.1639263006034994 21.790017022494357, 1.5570726285873095 18.965034481002434, 0.8574189838297954 16.32943725028737 C0.15776533907228119 13.693840019572308, -1.4096185842588558 9.55125119116654, -0.21015808201555153 7.1460976527931965 C0.9893024202277527 4.740944114419855, 5.56713974448303 2.7894068363083977, 8.054181997289621 1.8985160200473192 C10.541224250096214 1.0076252037862408, 13.758572569900608 2.138897847323535, 14.712095434823997 1.8007527552267248 C15.665618299747386 1.4626076631299147, 13.769266183969094 -0.31082198981170495, 13.775319186829957 -0.13035453253354135" stroke="#cccccc" stroke-width="1" fill="none"></path></g><g transform="translate(224 121) rotate(0 12 12)"><path d="M9.456103602189586 0.8891763465573312 C11.788926188710063 0.06192397745072398, 15.298755469264343 0.45085957712915614, 17.398879802024787 1.5478263738283946 C19.49900413478523 2.644793170527633, 21.127190678547983 5.051070165402683, 22.056849598752255 7.4709771267527625 C22.986508518956526 9.890884088102842, 23.671725085721164 13.717119909019665, 22.976833323250418 16.067268141928874 C22.28194156077967 18.417416374838083, 20.050042931235303 20.140998792196186, 17.887499023927766 21.571866524208012 C15.724955116620228 23.00273425621984, 12.29309459679531 24.969540852729356, 10.001569879405189 24.65247453399984 C7.710045162015067 24.335408215270323, 5.777797935858967 21.626080458855945, 4.138350719587038 19.669468611830915 C2.498903503315109 17.712856764805885, 0.4257973897325756 15.254865263561666, 0.16488658177361692 12.912803451849653 C-0.09602422618534173 10.57074164013764, 0.9501070625687535 7.779837416091368, 2.572885871833286 5.617097741558842 C4.195664681097818 3.4543580670263165, 8.424804849606486 0.7028774507015111, 9.901559437360811 -0.06363459534550131 C11.378314025115136 -0.8301466413925137, 11.444470582510238 0.8553743610997954, 11.433413398359233 1.018025465276768 M14.660062595683746 -0.09906527494002049 C16.879966909630756 -0.015611903607301095, 18.969272334911913 1.1408765805805534, 20.722821234712498 3.357474776216467 C22.476370134513083 5.574072971852381, 25.190018135895073 10.673059803070153, 25.181355994487255 13.20052389887546 C25.172693853079437 15.727987994680767, 22.59802593204479 16.728467349129378, 20.670848386265586 18.522259351048312 C18.74367084048638 20.316051352967246, 16.166728538903477 23.184569587092795, 13.618290719812034 23.963275910389072 C11.069852900720592 24.74198223368535, 7.746065230261689 24.417086715206217, 5.380221471716936 23.19449729082597 C3.0143777131721836 21.971907866445726, 0.44210162941447906 19.340140712289223, -0.5767718314564831 16.62773936410759 C-1.5956452923274453 13.91533801592596, -1.9992600449511058 9.291103939813194, -0.7330192935088373 6.920089201736184 C0.5332214579334311 4.549074463659174, 4.5541551169071095 3.711669458112384, 7.020672677197128 2.401650935645529 C9.487190237487146 1.0916324131786743, 13.123172562511586 -0.7392133535684771, 14.066086068231275 -0.9400219330649442 C15.008999573950964 -1.1408305125614113, 12.638775696414983 0.8642888610352493, 12.678153711515263 1.1967994586667263" stroke="#212163" stroke-width="1" fill="none"></path></g><g transform="translate(220 192) rotate(0 12 12)"><path d="M13.158189068284955 0.08985316165968094 C15.50385248154931 -0.14338685622123007, 18.63208342793049 0.6275664645871126, 20.47150580892822 2.275862521635121 C22.310928189925953 3.9241585786831292, 23.812331916047015 7.3996708279999615, 24.194723354271346 9.97962950394773 C24.577114792495678 12.5595881798955, 24.279816678181774 15.619433660680503, 22.765854438274218 17.755614577321737 C21.25189219836666 19.89179549396297, 17.562727370286684 21.77706163183664, 15.110949914825998 22.796715003795132 C12.65917245936531 23.816368375753623, 10.45670309235477 24.738687698247738, 8.055189705510095 23.873534809072673 C5.65367631866542 23.00838191989761, 1.9693944403209935 19.991598832830118, 0.7018695937579515 17.60579766874475 C-0.5656552528050904 15.219996504659383, -0.34808716533016515 12.125188325566835, 0.4500406261318428 9.55872782456047 C1.2481684175938508 6.992267323554106, 3.3590442081340925 3.7315544787018373, 5.490636342529999 2.2070346627065582 C7.6222284769259065 0.6825148467112789, 11.657217524911026 0.7827515174674831, 13.239593432507283 0.4116089285887945 C14.82196934010354 0.04046633971010599, 15.043961151061445 -0.2159845830112562, 14.98489178810754 -0.01982087056557269 M15.638805697655 0.3302264883475168 C17.858197515611362 1.0373158802388116, 19.91451859087828 4.838815942320581, 21.52393065457733 6.980003819366941 C23.13334271827638 9.121191696413302, 25.73492619975594 10.950863879756051, 25.295278079849307 13.177353750625677 C24.855629959942675 15.403843621495303, 21.03094345119488 18.673443195953926, 18.886041935137534 20.338943044584703 C16.74114041908019 22.00444289321548, 14.714479009685961 23.233736949587218, 12.425868983505243 23.170352842410338 C10.137258957324525 23.10696873523346, 7.1376789740668745 21.663876687244564, 5.154381778053226 19.95863840152342 C3.171084582039578 18.253400115802275, 1.336642728722366 15.026713948066696, 0.5260858074233532 12.938923128083466 C-0.2844711138756594 10.851132308100237, -1.012447493077694 9.417685591156076, 0.2910402502591509 7.431893481624044 C1.594527993595996 5.446101372092014, 5.929210802565937 2.344255694469405, 8.347012267444423 1.0241704708912813 C10.76481373232291 -0.2959147526868424, 13.419032248802502 -0.5696861409120796, 14.797849039530073 -0.4886178598446982 C16.176665830257644 -0.40754957877731685, 16.54970026372162 1.146690440216668, 16.619913011809846 1.5105801572955695" stroke="#cccccc" stroke-width="1" fill="none"></path></g><g transform="translate(312 175) rotate(0 12 12)"><path d="M17.35462961812027 1.5260307482392896 C19.4113952658301 2.4193689011724975, 21.097631242273316 5.010191455805165, 22.03696194933925 7.425837238945755 C22.976292656405185 9.841483022086345, 23.675357571850487 13.666804561303941, 22.99061386051587 16.019905447082834 C22.305870149181256 18.373006332861728, 20.08516765913812 20.10478991675124, 17.928499681331562 21.54444255361912 C15.771831703525006 22.984095190487, 12.343276315918018 24.964380984792705, 10.050605993676538 24.65782126829012 C7.757935671435057 24.351261551787537, 5.819556062116374 21.6543839579807, 4.172477747882674 19.70508425460362 C2.525399433648974 17.75578455122654, 0.4395928317589603 15.30338860794899, 0.16813610827433756 12.962023048027648 C-0.10332061521028518 10.620657488106305, 1.088908863799258 7.793933467330077, 2.5437374069749374 5.6568908950755645 C3.998565950150617 3.519848322821052, 6.173817124429075 0.6332446375993295, 8.897107367328413 0.13976761450057396 C11.620397610227752 -0.3537094085981816, 17.181190195755534 2.287114101997687, 18.88347886437097 2.696028756483031 C20.58576753298641 3.104943410968375, 19.222540165505055 2.4400493566042023, 19.110839379021037 2.5932555414126384 M12.088227708484828 -0.741296572763666 C14.596649572192373 -0.5322077987712444, 19.3482228682993 2.835740300093515, 21.201513043192065 4.510473150035203 C23.05480321808483 6.185205999976891, 23.16068299913235 6.969698678590108, 23.20796875784142 9.307100526886462 C23.25525451655049 11.644502375182816, 22.87056444574735 16.070588066569062, 21.485227595446474 18.534884239813323 C20.0998907451456 20.999180413057584, 17.454280651212578 23.27660336124888, 14.895947656036183 24.092877566352026 C12.337614660859789 24.90915177145517, 8.6121146742134 24.70680036127553, 6.135229624388101 23.432529470432204 C3.658344574562802 22.15825857958888, 0.8097107204535572 18.653786898204146, 0.03463735708438698 16.447252221292068 C-0.7404360062847832 14.240717544379988, 0.6877349635520017 12.689472315046356, 1.4847894441730798 10.193321408959727 C2.281843924794158 7.6971705028730995, 3.1861985881242667 3.0320383794609658, 4.816964240810855 1.470346784772298 C6.447729893497444 -0.09134480991637006, 9.899973841589398 1.0727730498695156, 11.269383360292611 0.8231718408277189 C12.638792878995824 0.573570631785922, 12.86549832295352 -0.23286217839797896, 13.033421353030134 -0.02726046947848282" stroke="#cccccc" stroke-width="1" fill="none"></path></g><g transform="translate(10 221) rotate(0 12 12)"><path d="M12.70136267301872 -0.41531049767931627 C15.03098087091533 -0.5104645140056784, 17.93756514700655 0.8889274110347527, 19.631029315749956 2.4535207576793816 C21.324493484493363 4.0181141043240105, 22.442457514828266 6.366474806026643, 22.862147685479158 8.972249582188457 C23.28183785613005 11.578024358350271, 23.307762878453975 15.783362377792947, 22.149170339655313 18.088169414650267 C20.990577800856652 20.392976451507586, 18.244566989945564 21.85704521950592, 15.910592452687183 22.801091803332373 C13.576617915428802 23.745138387158825, 10.41867008774318 24.515218908039607, 8.145323116105022 23.752448917608987 C5.8719761444668634 22.989678927178367, 3.542672886344106 20.517515878211093, 2.270510622858229 18.224471860748665 C0.9983483593723517 15.931427843286237, 0.2756742844917093 12.6944635507612, 0.5123495351897596 9.994184812834417 C0.7490247858878099 7.293906074907635, 1.309903484445965 3.562000230942906, 3.6905621270465305 2.022799433187977 C6.071220769647097 0.48359863543304815, 12.610645070576494 0.7921947192274349, 14.796301390793154 0.7589800263048438 C16.981957711009812 0.7257653333822528, 16.932619048173585 1.630661013474697, 16.80450004834649 1.8235112756524305 M9.198352355024737 1.2524227050215018 C11.984769493163059 0.5805391742203394, 16.32262248891173 -0.9647293918811173, 18.838007882220904 0.13641306772650807 C21.353393275530077 1.2375555273341334, 23.354754902149853 5.523378048215127, 24.290664714879775 7.8592774626672535 C25.226574527609696 10.19517687711938, 25.527152040154533 11.993002155672276, 24.453466758600438 14.151809554439264 C23.379781477046343 16.310616953206253, 20.021183730403607 19.12367922367899, 17.848553025555194 20.81212185526919 C15.67592232070678 22.50056448685939, 13.701618379748119 24.60869614698523, 11.417682529509953 24.282465343980448 C9.133746679271788 23.956234540975665, 6.044491652647624 20.595439666796665, 4.144937924126202 18.85473703724049 C2.24538419560478 17.114034407684315, 0.18355779160727112 16.229221413546107, 0.02036015838142191 13.838249566643405 C-0.1428374748444273 11.447277719740702, 1.357810717513795 6.943761409951593, 3.1657521247711067 4.5089059558242734 C4.973693532028419 2.074050501696954, 9.936374589848633 -0.13062749550221453, 10.868008601925292 -0.7708831581205118 C11.79964261400195 -1.4111388207388091, 8.726209670731201 0.22428952743588465, 8.755556197231055 0.6673719801144902" stroke="#212163" stroke-width="1" fill="none"></path></g><g transform="translate(152 100) rotate(0 5.5 11.5)"><text x="0" y="18" font-family="Helvetica, Segoe UI Emoji" font-size="20px" fill="#cccccc" text-anchor="start" style="white-space: pre;" direction="ltr">1</text></g><g><g transform="translate(41 236) rotate(0 88.56571941568978 -12.958085236768227)"><path d="M0.3507563643157483 -0.6395381145179272 C29.908778998504086 -5.095629876106978, 148.49443110351763 -23.349535434693095, 178.0556741051376 -27.55527090355754 M-0.9242352737579496 1.6391004300210628 C28.418727954567096 -2.589571758201345, 147.51538856391173 -21.431964749684557, 177.1368575467076 -26.30936287670396" stroke="#cccccc" stroke-width="1" fill="none"></path></g></g><g><g transform="translate(167 126) rotate(0 27.47072308280974 34.68135349331891)"><path d="M-0.7282218866050243 0.8013116888701914 C8.114832622557879 12.218856824686128, 44.12861581519246 58.080681821952254, 53.31653345301747 69.18631060644984 M1.0903228935878726 0.1763963801879438 C10.302959731249139 11.232520460508145, 46.87752024921589 56.306616566699624, 55.669668052224445 67.6865489260573" stroke="#cccccc" stroke-width="1" fill="none"></path></g></g><g><g transform="translate(119 168) rotate(0 53.35279838517306 -13.269149310141785)"><path d="M-0.8588061980903148 -0.2339880175888538 C17.012804371863606 -4.453499105324347, 89.25078571513295 -22.189411483953396, 107.56440296843648 -26.30431060269475 M0.8911818185728042 -1.4024356721621007 C18.53736664894037 -5.357822332757836, 88.40382934662514 -20.71027572480651, 106.38766906323843 -24.92664841788821" stroke="#000000" stroke-width="1" fill="none"></path></g></g><g><g transform="translate(189 34) rotate(0 65.89996656814128 71.851757196174)"><path d="M-0.4822578839957714 0.9296816401183603 C21.205059829105934 24.843010772516326, 107.95190017099182 119.57315394605199, 130.06245015338064 143.3313538365066 M1.4654179975669832 0.3721605558414014 C23.52805622123492 23.9218552309492, 110.52052889180989 117.88013655595171, 132.28219102027825 141.38273985189386" stroke="#cccccc" stroke-width="1" fill="none"></path></g></g><g><g transform="translate(142 104) rotate(0 -31.440810834974968 -12.239815077348595)"><path d="M0.4934713907539845 0.35750308558344845 C-10.001648029933373 -3.6853862471878527, -52.39090693121155 -18.935143179446456, -62.9685558013618 -23.15708753541112 M-0.7065948584396393 -0.5004117398243397 C-11.26967326380002 -4.361450224099681, -52.95975193905023 -20.89251656043343, -63.375093060703946 -24.83713324028067" stroke="#cccccc" stroke-width="1" fill="none"></path></g></g><g><g transform="translate(81 65) rotate(0 41.39021915003195 -17.871408809344274)"><path d="M1.007446175068617 -0.7656832627952099 C14.717178047945104 -6.898447641978661, 69.17256917680304 -31.113266540815435, 82.70322161242366 -37.18954669758678 M0.0772166876401752 1.4467290788982066 C13.564036504964655 -4.463868851155664, 67.502049125672 -29.506654686521117, 81.59936749531887 -35.75163346259855" stroke="#cccccc" stroke-width="1" fill="none"></path></g></g><g><g transform="translate(239 150) rotate(0 -0.440246739508666 16.51555837914347)"><path d="M-0.33711282536387444 -0.7731931395828724 C-0.5264148327211539 4.896276383846999, -1.3027396214505038 27.989066296070817, -1.4060408048331738 33.80430989786983 M1.686764211980626 1.4352765167970212 C1.3275573619486145 6.788085288228467, -2.002796791664635 26.949402889730408, -2.567257690997794 32.10399784547277" stroke="#cccccc" stroke-width="1" fill="none"></path></g></g><g><g transform="translate(247 140) rotate(0 31.459630912090688 20.81223422609736)"><path d="M0.7816124014556407 -1.1877693347632885 C11.339654363443454 5.922444445639848, 53.12371446813146 34.154424507170916, 63.18644164130092 41.52446723654866 M-0.26717981711961336 0.8030478191468866 C10.250812886099641 8.175491582462563, 52.21504569494786 36.07407416165806, 62.86127803935669 42.81223778695799" stroke="#cccccc" stroke-width="1" fill="none"></path></g></g><g><g transform="translate(95 160) rotate(0 -11.767086859648089 -35.079802074204196)"><path d="M0.5371309809386731 0.6495808906853198 C-3.3774370220800236 -10.695826158175866, -19.170503483961024 -57.54034094934662, -23.08082572892308 -69.1387608461082 M-0.6400139834079892 -0.054993087043985645 C-4.755251476823663 -11.637371088356401, -20.23613668199318 -59.03044315953118, -24.071304700234904 -70.80918503909372" stroke="#000000" stroke-width="1" fill="none"></path></g></g><g><g transform="translate(31 217) rotate(0 27.229268067330167 -17.86838850147555)"><path d="M-0.5936806865036487 0.8395817823708056 C8.562576251477003 -5.115098286916813, 45.9805080704391 -28.66159850085775, 55.052216821163896 -34.64182559773326 M1.2954982237424701 0.2347582727763804 C10.375768765350804 -5.579261084686343, 46.04165593846701 -30.91286092558565, 54.65658518864773 -36.576358785321936" stroke="#000000" stroke-width="1" fill="none"></path></g></g><g transform="translate(229 121) rotate(0 5.5 11.5)"><text x="0" y="18" font-family="Helvetica, Segoe UI Emoji" font-size="20px" fill="#212163" text-anchor="start" style="white-space: pre;" direction="ltr">2</text></g><g transform="translate(317 176) rotate(0 5.5 11.5)"><text x="0" y="18" font-family="Helvetica, Segoe UI Emoji" font-size="20px" fill="#cccccc" text-anchor="start" style="white-space: pre;" direction="ltr">3</text></g><g transform="translate(225 193) rotate(0 5.5 11.5)"><text x="0" y="18" font-family="Helvetica, Segoe UI Emoji" font-size="20px" fill="#cccccc" text-anchor="start" style="white-space: pre;" direction="ltr">4</text></g><g transform="translate(168 10) rotate(0 5.5 11.5)"><text x="0" y="18" font-family="Helvetica, Segoe UI Emoji" font-size="20px" fill="#cccccc" text-anchor="start" style="white-space: pre;" direction="ltr">5</text></g><g transform="translate(59 63) rotate(0 5.5 11.5)"><text x="0" y="18" font-family="Helvetica, Segoe UI Emoji" font-size="20px" fill="#212163" text-anchor="start" style="white-space: pre;" direction="ltr">6</text></g><g transform="translate(98 162) rotate(0 5.5 11.5)"><text x="0" y="18" font-family="Helvetica, Segoe UI Emoji" font-size="20px" fill="#212163" text-anchor="start" style="white-space: pre;" direction="ltr">7</text></g><g transform="translate(17 221) rotate(0 5.5 11.5)"><text x="0" y="18" font-family="Helvetica, Segoe UI Emoji" font-size="20px" fill="#212163" text-anchor="start" style="white-space: pre;" direction="ltr">8</text></g></svg>