<?xml version="1.0" encoding="UTF-8" standalone="no"?>
<!DOCTYPE svg PUBLIC "-//W3C//DTD SVG 1.1//EN"
 "http://www.w3.org/Graphics/SVG/1.1/DTD/svg11.dtd">
<!-- Generated by graphviz version 2.43.0 (0)
 -->
<!-- Title: finite_state_machine Pages: 1 -->
<svg width="912pt" height="113pt"
 viewBox="0.00 0.00 911.52 113.48" xmlns="http://www.w3.org/2000/svg" xmlns:xlink="http://www.w3.org/1999/xlink">
<g id="graph0" class="graph" transform="scale(1 1) rotate(0) translate(4 109.48)">
<title>finite_state_machine</title>
<polygon fill="white" stroke="transparent" points="-4,4 -4,-109.48 907.52,-109.48 907.52,4 -4,4"/>
<g id="clust1" class="cluster">
<title>cluster</title>
<polygon fill="lightgrey" stroke="lightgrey" points="8,-45.48 8,-97.48 239.19,-97.48 239.19,-45.48 8,-45.48"/>
</g>
<!-- fn -->
<g id="node1" class="node">
<title>fn</title>
<ellipse fill="none" stroke="black" cx="43" cy="-71.48" rx="27" ry="18"/>
<text text-anchor="middle" x="43" y="-67.78" font-family="Times,serif" font-size="14.00">fn</text>
</g>
<!-- input -->
<g id="node2" class="node">
<title>input</title>
<ellipse fill="none" stroke="black" cx="196.1" cy="-71.48" rx="35.19" ry="18"/>
<text text-anchor="middle" x="196.1" y="-67.78" font-family="Times,serif" font-size="14.00">input</text>
</g>
<!-- fn&#45;&gt;input -->
<g id="edge1" class="edge">
<title>fn&#45;&gt;input</title>
<path fill="none" stroke="black" d="M70.32,-71.48C92.49,-71.48 124.67,-71.48 150.8,-71.48"/>
<polygon fill="black" stroke="black" points="150.85,-74.98 160.85,-71.48 150.85,-67.98 150.85,-74.98"/>
<text text-anchor="middle" x="115.5" y="-75.28" font-family="Times,serif" font-size="14.00">accepts</text>
</g>
<!-- factory -->
<g id="node4" class="node">
<title>factory</title>
<polygon fill="none" stroke="black" points="335.19,-55.48 268.19,-55.48 268.19,-19.48 335.19,-19.48 335.19,-55.48"/>
<text text-anchor="middle" x="301.69" y="-33.78" font-family="Times,serif" font-size="14.00">factory</text>
</g>
<!-- fn&#45;&gt;factory -->
<g id="edge2" class="edge">
<title>fn&#45;&gt;factory</title>
<path fill="none" stroke="black" d="M68.42,-64.51C91.92,-58.12 128.58,-48.99 161,-44.48 193.31,-39.98 230.18,-38.27 257.92,-37.67"/>
<polygon fill="black" stroke="black" points="258.14,-41.16 268.08,-37.49 258.02,-34.16 258.14,-41.16"/>
</g>
<!-- input&#45;&gt;factory -->
<g id="edge3" class="edge">
<title>input&#45;&gt;factory</title>
<path fill="none" stroke="black" d="M225.95,-62.01C235.95,-58.73 247.37,-54.98 258.22,-51.42"/>
<polygon fill="black" stroke="black" points="259.57,-54.66 267.98,-48.21 257.38,-48.01 259.57,-54.66"/>
</g>
<!-- true -->
<g id="node3" class="node">
<title>true</title>
<ellipse fill="none" stroke="black" cx="872.97" cy="-37.48" rx="30.59" ry="18"/>
<text text-anchor="middle" x="872.97" y="-33.78" font-family="Times,serif" font-size="14.00">true</text>
</g>
<!-- a -->
<g id="node6" class="node">
<title>a</title>
<ellipse fill="none" stroke="black" cx="473.31" cy="-37.48" rx="101.23" ry="37.45"/>
<text text-anchor="middle" x="473.31" y="-48.78" font-family="Times,serif" font-size="14.00">function that</text>
<text text-anchor="middle" x="473.31" y="-33.78" font-family="Times,serif" font-size="14.00"> accepts a</text>
<text text-anchor="middle" x="473.31" y="-18.78" font-family="Times,serif" font-size="14.00"> regular language</text>
</g>
<!-- factory&#45;&gt;a -->
<g id="edge4" class="edge">
<title>factory&#45;&gt;a</title>
<path fill="none" stroke="black" d="M335.4,-37.48C343.4,-37.48 352.41,-37.48 361.9,-37.48"/>
<polygon fill="black" stroke="black" points="361.93,-40.98 371.93,-37.48 361.93,-33.98 361.93,-40.98"/>
</g>
<!-- regularLanguageDecider -->
<g id="node5" class="node">
<title>regularLanguageDecider</title>
<polygon fill="none" stroke="black" points="805.43,-55.48 611.43,-55.48 611.43,-19.48 805.43,-19.48 805.43,-55.48"/>
<text text-anchor="middle" x="708.43" y="-33.78" font-family="Times,serif" font-size="14.00">regularLanguageDecider</text>
</g>
<!-- regularLanguageDecider&#45;&gt;true -->
<g id="edge6" class="edge">
<title>regularLanguageDecider&#45;&gt;true</title>
<path fill="none" stroke="black" d="M805.86,-37.48C814.99,-37.48 823.85,-37.48 831.96,-37.48"/>
<polygon fill="black" stroke="black" points="832.16,-40.98 842.16,-37.48 832.16,-33.98 832.16,-40.98"/>
</g>
<!-- a&#45;&gt;regularLanguageDecider -->
<g id="edge5" class="edge">
<title>a&#45;&gt;regularLanguageDecider</title>
<path fill="none" stroke="black" d="M574.53,-37.48C583.4,-37.48 592.41,-37.48 601.33,-37.48"/>
<polygon fill="black" stroke="black" points="601.36,-40.98 611.36,-37.48 601.36,-33.98 601.36,-40.98"/>
</g>
</g>
</svg>
