<?xml version="1.0" encoding="UTF-8" standalone="no"?><svg xmlns="http://www.w3.org/2000/svg" xmlns:xlink="http://www.w3.org/1999/xlink" contentScriptType="application/ecmascript" contentStyleType="text/css" height="177px" preserveAspectRatio="none" style="width:346px;height:177px;" version="1.1" viewBox="0 0 346 177" width="346px" zoomAndPan="magnify"><defs><filter height="300%" id="foau50peg847u" width="300%" x="-1" y="-1"><feGaussianBlur result="blurOut" stdDeviation="2.0"/><feColorMatrix in="blurOut" result="blurOut2" type="matrix" values="0 0 0 0 0 0 0 0 0 0 0 0 0 0 0 0 0 0 .4 0"/><feOffset dx="4.0" dy="4.0" in="blurOut2" result="blurOut3"/><feBlend in="SourceGraphic" in2="blurOut3" mode="normal"/></filter></defs><g><!--MD5=[2cb47ba637a0d19583e6199456f6ad0b]
class Player--><rect codeLine="1" fill="#FEFECE" filter="url(#foau50peg847u)" height="48" id="Player" style="stroke:#A80036;stroke-width:1.5;" width="68" x="58.5" y="7"/><ellipse cx="73.5" cy="23" fill="#B4A7E5" rx="11" ry="11" style="stroke:#A80036;stroke-width:1.0;"/><path d="M74.4531,19.7813 L76.1719,19.7813 C76.5625,19.7813 76.75,19.75 76.875,19.6719 C77.1406,19.5156 77.2813,19.2344 77.2813,18.9375 C77.2813,18.6719 77.1719,18.4063 76.9375,18.2344 C76.7656,18.125 76.625,18.0938 76.1719,18.0938 L71.0313,18.0938 C70.5938,18.0938 70.4688,18.1094 70.3125,18.2031 C70.0625,18.3594 69.9063,18.6563 69.9063,18.9375 C69.9063,19.2188 70.0469,19.4688 70.2656,19.6406 C70.4219,19.75 70.6094,19.7813 71.0313,19.7813 L72.75,19.7813 L72.75,26.2969 L71.0313,26.2969 C70.5938,26.2969 70.4688,26.3125 70.3125,26.4219 C70.0625,26.5781 69.9063,26.8594 69.9063,27.1563 C69.9063,27.4063 70.0469,27.6719 70.2656,27.8281 C70.4219,27.9531 70.625,28 71.0313,28 L76.1719,28 C76.9219,28 77.2813,27.7188 77.2813,27.1563 C77.2813,26.875 77.1719,26.625 76.9375,26.4531 C76.7656,26.3281 76.625,26.2969 76.1719,26.2969 L74.4531,26.2969 L74.4531,19.7813 Z " fill="#000000"/><text fill="#000000" font-family="sans-serif" font-size="12" font-style="italic" lengthAdjust="spacingAndGlyphs" textLength="36" x="87.5" y="27.1543">Player</text><line style="stroke:#A80036;stroke-width:1.5;" x1="59.5" x2="125.5" y1="39" y2="39"/><line style="stroke:#A80036;stroke-width:1.5;" x1="59.5" x2="125.5" y1="47" y2="47"/><!--MD5=[3fd616f346a44cd59a91eb10b19e157c]
class User--><rect codeLine="2" fill="#FEFECE" filter="url(#foau50peg847u)" height="48" id="User" style="stroke:#A80036;stroke-width:1.5;" width="61" x="7" y="115"/><ellipse cx="22" cy="131" fill="#ADD1B2" rx="11" ry="11" style="stroke:#A80036;stroke-width:1.0;"/><path d="M24.3438,126.6719 C23.4063,126.2344 22.8125,126.0938 21.9375,126.0938 C19.3125,126.0938 17.3125,128.1719 17.3125,130.8906 L17.3125,132.0156 C17.3125,134.5938 19.4219,136.4844 22.3125,136.4844 C23.5313,136.4844 24.6875,136.1875 25.4375,135.6406 C26.0156,135.2344 26.3438,134.7813 26.3438,134.3906 C26.3438,133.9375 25.9531,133.5469 25.4844,133.5469 C25.2656,133.5469 25.0625,133.625 24.875,133.8125 C24.4219,134.2969 24.4219,134.2969 24.2344,134.3906 C23.8125,134.6563 23.125,134.7813 22.3594,134.7813 C20.3125,134.7813 19.0156,133.6875 19.0156,131.9844 L19.0156,130.8906 C19.0156,129.1094 20.2656,127.7969 22,127.7969 C22.5781,127.7969 23.1875,127.9531 23.6563,128.2031 C24.1406,128.4844 24.3125,128.7031 24.4063,129.1094 C24.4688,129.5156 24.5,129.6406 24.6406,129.7656 C24.7813,129.9063 25.0156,130.0156 25.2344,130.0156 C25.5,130.0156 25.7656,129.875 25.9375,129.6563 C26.0469,129.5 26.0781,129.3125 26.0781,128.8906 L26.0781,127.4688 C26.0781,127.0313 26.0625,126.9063 25.9688,126.75 C25.8125,126.4844 25.5313,126.3438 25.2344,126.3438 C24.9375,126.3438 24.7344,126.4375 24.5156,126.75 L24.3438,126.6719 Z " fill="#000000"/><text fill="#000000" font-family="sans-serif" font-size="12" lengthAdjust="spacingAndGlyphs" textLength="29" x="36" y="135.1543">User</text><line style="stroke:#A80036;stroke-width:1.5;" x1="8" x2="67" y1="147" y2="147"/><line style="stroke:#A80036;stroke-width:1.5;" x1="8" x2="67" y1="155" y2="155"/><!--MD5=[db25027423b3b96a5b12184dc6d389a4]
class Computer--><rect codeLine="3" fill="#FEFECE" filter="url(#foau50peg847u)" height="48" id="Computer" style="stroke:#A80036;stroke-width:1.5;" width="91" x="103" y="115"/><ellipse cx="118" cy="131" fill="#ADD1B2" rx="11" ry="11" style="stroke:#A80036;stroke-width:1.0;"/><path d="M120.3438,126.6719 C119.4063,126.2344 118.8125,126.0938 117.9375,126.0938 C115.3125,126.0938 113.3125,128.1719 113.3125,130.8906 L113.3125,132.0156 C113.3125,134.5938 115.4219,136.4844 118.3125,136.4844 C119.5313,136.4844 120.6875,136.1875 121.4375,135.6406 C122.0156,135.2344 122.3438,134.7813 122.3438,134.3906 C122.3438,133.9375 121.9531,133.5469 121.4844,133.5469 C121.2656,133.5469 121.0625,133.625 120.875,133.8125 C120.4219,134.2969 120.4219,134.2969 120.2344,134.3906 C119.8125,134.6563 119.125,134.7813 118.3594,134.7813 C116.3125,134.7813 115.0156,133.6875 115.0156,131.9844 L115.0156,130.8906 C115.0156,129.1094 116.2656,127.7969 118,127.7969 C118.5781,127.7969 119.1875,127.9531 119.6563,128.2031 C120.1406,128.4844 120.3125,128.7031 120.4063,129.1094 C120.4688,129.5156 120.5,129.6406 120.6406,129.7656 C120.7813,129.9063 121.0156,130.0156 121.2344,130.0156 C121.5,130.0156 121.7656,129.875 121.9375,129.6563 C122.0469,129.5 122.0781,129.3125 122.0781,128.8906 L122.0781,127.4688 C122.0781,127.0313 122.0625,126.9063 121.9688,126.75 C121.8125,126.4844 121.5313,126.3438 121.2344,126.3438 C120.9375,126.3438 120.7344,126.4375 120.5156,126.75 L120.3438,126.6719 Z " fill="#000000"/><text fill="#000000" font-family="sans-serif" font-size="12" lengthAdjust="spacingAndGlyphs" textLength="59" x="132" y="135.1543">Computer</text><line style="stroke:#A80036;stroke-width:1.5;" x1="104" x2="193" y1="147" y2="147"/><line style="stroke:#A80036;stroke-width:1.5;" x1="104" x2="193" y1="155" y2="155"/><!--MD5=[b6dcce5e5ef3c84b0b048d11301373dd]
class Game--><rect codeLine="4" fill="#FEFECE" filter="url(#foau50peg847u)" height="48" id="Game" style="stroke:#A80036;stroke-width:1.5;" width="67" x="162" y="7"/><ellipse cx="177" cy="23" fill="#ADD1B2" rx="11" ry="11" style="stroke:#A80036;stroke-width:1.0;"/><path d="M179.3438,18.6719 C178.4063,18.2344 177.8125,18.0938 176.9375,18.0938 C174.3125,18.0938 172.3125,20.1719 172.3125,22.8906 L172.3125,24.0156 C172.3125,26.5938 174.4219,28.4844 177.3125,28.4844 C178.5313,28.4844 179.6875,28.1875 180.4375,27.6406 C181.0156,27.2344 181.3438,26.7813 181.3438,26.3906 C181.3438,25.9375 180.9531,25.5469 180.4844,25.5469 C180.2656,25.5469 180.0625,25.625 179.875,25.8125 C179.4219,26.2969 179.4219,26.2969 179.2344,26.3906 C178.8125,26.6563 178.125,26.7813 177.3594,26.7813 C175.3125,26.7813 174.0156,25.6875 174.0156,23.9844 L174.0156,22.8906 C174.0156,21.1094 175.2656,19.7969 177,19.7969 C177.5781,19.7969 178.1875,19.9531 178.6563,20.2031 C179.1406,20.4844 179.3125,20.7031 179.4063,21.1094 C179.4688,21.5156 179.5,21.6406 179.6406,21.7656 C179.7813,21.9063 180.0156,22.0156 180.2344,22.0156 C180.5,22.0156 180.7656,21.875 180.9375,21.6563 C181.0469,21.5 181.0781,21.3125 181.0781,20.8906 L181.0781,19.4688 C181.0781,19.0313 181.0625,18.9063 180.9688,18.75 C180.8125,18.4844 180.5313,18.3438 180.2344,18.3438 C179.9375,18.3438 179.7344,18.4375 179.5156,18.75 L179.3438,18.6719 Z " fill="#000000"/><text fill="#000000" font-family="sans-serif" font-size="12" lengthAdjust="spacingAndGlyphs" textLength="35" x="191" y="27.1543">Game</text><line style="stroke:#A80036;stroke-width:1.5;" x1="163" x2="228" y1="39" y2="39"/><line style="stroke:#A80036;stroke-width:1.5;" x1="163" x2="228" y1="47" y2="47"/><!--MD5=[9563755d011c5cec7ec66dc53565a59e]
class Board--><rect codeLine="5" fill="#FEFECE" filter="url(#foau50peg847u)" height="48" id="Board" style="stroke:#A80036;stroke-width:1.5;" width="68" x="264.5" y="7"/><ellipse cx="279.5" cy="23" fill="#ADD1B2" rx="11" ry="11" style="stroke:#A80036;stroke-width:1.0;"/><path d="M281.8438,18.6719 C280.9063,18.2344 280.3125,18.0938 279.4375,18.0938 C276.8125,18.0938 274.8125,20.1719 274.8125,22.8906 L274.8125,24.0156 C274.8125,26.5938 276.9219,28.4844 279.8125,28.4844 C281.0313,28.4844 282.1875,28.1875 282.9375,27.6406 C283.5156,27.2344 283.8438,26.7813 283.8438,26.3906 C283.8438,25.9375 283.4531,25.5469 282.9844,25.5469 C282.7656,25.5469 282.5625,25.625 282.375,25.8125 C281.9219,26.2969 281.9219,26.2969 281.7344,26.3906 C281.3125,26.6563 280.625,26.7813 279.8594,26.7813 C277.8125,26.7813 276.5156,25.6875 276.5156,23.9844 L276.5156,22.8906 C276.5156,21.1094 277.7656,19.7969 279.5,19.7969 C280.0781,19.7969 280.6875,19.9531 281.1563,20.2031 C281.6406,20.4844 281.8125,20.7031 281.9063,21.1094 C281.9688,21.5156 282,21.6406 282.1406,21.7656 C282.2813,21.9063 282.5156,22.0156 282.7344,22.0156 C283,22.0156 283.2656,21.875 283.4375,21.6563 C283.5469,21.5 283.5781,21.3125 283.5781,20.8906 L283.5781,19.4688 C283.5781,19.0313 283.5625,18.9063 283.4688,18.75 C283.3125,18.4844 283.0313,18.3438 282.7344,18.3438 C282.4375,18.3438 282.2344,18.4375 282.0156,18.75 L281.8438,18.6719 Z " fill="#000000"/><text fill="#000000" font-family="sans-serif" font-size="12" lengthAdjust="spacingAndGlyphs" textLength="36" x="293.5" y="27.1543">Board</text><line style="stroke:#A80036;stroke-width:1.5;" x1="265.5" x2="331.5" y1="39" y2="39"/><line style="stroke:#A80036;stroke-width:1.5;" x1="265.5" x2="331.5" y1="47" y2="47"/><!--MD5=[02f36e01e966f9911ab616b886036f2b]
reverse link Player to User--><path d="M71.1778,73.0936 C63.8607,87.1958 55.9282,102.4838 49.6008,114.6784 " fill="none" id="Player-backto-User" style="stroke:#A80036;stroke-width:1.0;stroke-dasharray:7.0,7.0;"/><polygon fill="none" points="65.1411,69.529,80.5658,55,77.5679,75.9769,65.1411,69.529" style="stroke:#A80036;stroke-width:1.0;"/><!--MD5=[9b9808c9db634c8d87854855974c807f]
reverse link Player to Computer--><path d="M114.21,73.0936 C121.66,87.1958 129.737,102.4838 136.179,114.6784 " fill="none" id="Player-backto-Computer" style="stroke:#A80036;stroke-width:1.0;stroke-dasharray:7.0,7.0;"/><polygon fill="none" points="107.804,75.9542,104.6512,55,120.183,69.4144,107.804,75.9542" style="stroke:#A80036;stroke-width:1.0;"/><!--MD5=[17572995afd10dcc5d782da642a955c6]
reverse link Player to Game--><path codeLine="7" d="M131.925,31 C141.919,31 151.912,31 161.906,31 " fill="none" id="Player-backto-Game" style="stroke:#A80036;stroke-width:1.0;"/><polygon fill="#A80036" points="126.699,31,135.699,35,131.699,31,135.699,27,126.699,31" style="stroke:#A80036;stroke-width:1.0;"/><text fill="#000000" font-family="sans-serif" font-size="13" lengthAdjust="spacingAndGlyphs" textLength="8" x="134.5775" y="26.5337">2</text><!--MD5=[15c8f9ca3aac13d865864b4eb5314ef1]
link Game to Board--><path codeLine="8" d="M229.297,31 C239.272,31 249.247,31 259.223,31 " fill="none" id="Game-to-Board" style="stroke:#A80036;stroke-width:1.0;"/><polygon fill="#A80036" points="264.439,31,255.439,27,259.439,31,255.439,35,264.439,31" style="stroke:#A80036;stroke-width:1.0;"/><!--MD5=[bc2fea37efcd8c22f25382c37e1dc869]
@startuml
interface Player
class User implements Player
class Computer implements Player
class Game
class Board

Game -left-> "2" Player
Game -right-> Board
@enduml

PlantUML version 1.2020.24(Fri Dec 18 17:00:36 UTC 2020)
(GPL source distribution)
Java Runtime: Java(TM) SE Runtime Environment
JVM: Java HotSpot(TM) 64-Bit Server VM
Default Encoding: UTF-8
Language: en
Country: US
--></g></svg>