<?xml version="1.0" encoding="UTF-8" standalone="no"?>
<!DOCTYPE svg PUBLIC "-//W3C//DTD SVG 1.1//EN"
 "http://www.w3.org/Graphics/SVG/1.1/DTD/svg11.dtd">
<!-- Generated by graphviz version 2.43.0 (0)
 -->
<!-- Title: hierarchy Pages: 1 -->
<svg width="592pt" height="320pt"
 viewBox="0.00 0.00 591.50 320.00" xmlns="http://www.w3.org/2000/svg" xmlns:xlink="http://www.w3.org/1999/xlink">
<g id="graph0" class="graph" transform="scale(1 1) rotate(0) translate(4 316)">
<title>hierarchy</title>
<polygon fill="white" stroke="transparent" points="-4,4 -4,-316 587.5,-316 587.5,4 -4,4"/>
<!-- 2 -->
<g id="node1" class="node">
<title>2</title>
<polygon fill="#f2f2f2" stroke="black" points="0,-121.5 0,-190.5 218,-190.5 218,-121.5 0,-121.5"/>
<text text-anchor="middle" x="109" y="-175.3" font-family="Times,serif" font-size="14.00">Player</text>
<polyline fill="none" stroke="black" points="0,-167.5 218,-167.5 "/>
<text text-anchor="middle" x="109" y="-152.3" font-family="Times,serif" font-size="14.00"> </text>
<polyline fill="none" stroke="black" points="0,-144.5 218,-144.5 "/>
<text text-anchor="middle" x="109" y="-129.3" font-family="Times,serif" font-size="14.00">+ play(board: Board): Board</text>
</g>
<!-- 3 -->
<g id="node2" class="node">
<title>3</title>
<polygon fill="#f2f2f2" stroke="black" points="21,-0.5 21,-69.5 109,-69.5 109,-0.5 21,-0.5"/>
<text text-anchor="middle" x="65" y="-54.3" font-family="Times,serif" font-size="14.00">Computer</text>
<polyline fill="none" stroke="black" points="21,-46.5 109,-46.5 "/>
<text text-anchor="middle" x="65" y="-31.3" font-family="Times,serif" font-size="14.00"> </text>
<polyline fill="none" stroke="black" points="21,-23.5 109,-23.5 "/>
<text text-anchor="middle" x="65" y="-8.3" font-family="Times,serif" font-size="14.00"> </text>
</g>
<!-- 2&#45;&gt;3 -->
<g id="edge1" class="edge">
<title>2&#45;&gt;3</title>
<path fill="none" stroke="black" d="M92.91,-111.49C87.84,-97.76 82.31,-82.81 77.52,-69.87"/>
<polygon fill="none" stroke="black" points="89.76,-113.05 96.51,-121.22 96.32,-110.62 89.76,-113.05"/>
</g>
<!-- 4 -->
<g id="node3" class="node">
<title>4</title>
<polygon fill="#f2f2f2" stroke="black" points="127,-0.5 127,-69.5 181,-69.5 181,-0.5 127,-0.5"/>
<text text-anchor="middle" x="154" y="-54.3" font-family="Times,serif" font-size="14.00">User</text>
<polyline fill="none" stroke="black" points="127,-46.5 181,-46.5 "/>
<text text-anchor="middle" x="154" y="-31.3" font-family="Times,serif" font-size="14.00"> </text>
<polyline fill="none" stroke="black" points="127,-23.5 181,-23.5 "/>
<text text-anchor="middle" x="154" y="-8.3" font-family="Times,serif" font-size="14.00"> </text>
</g>
<!-- 2&#45;&gt;4 -->
<g id="edge2" class="edge">
<title>2&#45;&gt;4</title>
<path fill="none" stroke="black" d="M125.45,-111.49C130.64,-97.76 136.3,-82.81 141.19,-69.87"/>
<polygon fill="none" stroke="black" points="122.04,-110.63 121.77,-121.22 128.59,-113.1 122.04,-110.63"/>
</g>
<!-- 5 -->
<g id="node4" class="node">
<title>5</title>
<polygon fill="#f2f2f2" stroke="black" points="236.5,-106.5 236.5,-205.5 583.5,-205.5 583.5,-106.5 236.5,-106.5"/>
<text text-anchor="middle" x="410" y="-190.3" font-family="Times,serif" font-size="14.00">Board</text>
<polyline fill="none" stroke="black" points="236.5,-182.5 583.5,-182.5 "/>
<text text-anchor="start" x="244.5" y="-167.3" font-family="Times,serif" font-size="14.00">&#45; cells: Seq[Option[Symbol]]</text>
<text text-anchor="start" x="244.5" y="-152.3" font-family="Times,serif" font-size="14.00">+ outcome: Option[Symbol]</text>
<polyline fill="none" stroke="black" points="236.5,-144.5 583.5,-144.5 "/>
<text text-anchor="start" x="244.5" y="-129.3" font-family="Times,serif" font-size="14.00">+mark(symbol: Symbol, index: Int): Board</text>
<text text-anchor="start" x="244.5" y="-114.3" font-family="Times,serif" font-size="14.00">+possibleMoves(symbol: Symbol): Seq[Board]</text>
</g>
<!-- 6 -->
<g id="node5" class="node">
<title>6</title>
<polygon fill="#f2f2f2" stroke="black" points="170,-242.5 170,-311.5 348,-311.5 348,-242.5 170,-242.5"/>
<text text-anchor="middle" x="259" y="-296.3" font-family="Times,serif" font-size="14.00">Game</text>
<polyline fill="none" stroke="black" points="170,-288.5 348,-288.5 "/>
<text text-anchor="middle" x="259" y="-273.3" font-family="Times,serif" font-size="14.00"> </text>
<polyline fill="none" stroke="black" points="170,-265.5 348,-265.5 "/>
<text text-anchor="middle" x="259" y="-250.3" font-family="Times,serif" font-size="14.00">+unravel(): Seq[State]</text>
</g>
<!-- 6&#45;&gt;2 -->
<g id="edge4" class="edge">
<title>6&#45;&gt;2</title>
<path fill="none" stroke="black" d="M216.42,-242.22C198.77,-228.21 178.15,-211.86 159.72,-197.24"/>
<polygon fill="black" stroke="black" points="161.44,-194.13 151.43,-190.66 157.09,-199.62 161.44,-194.13"/>
</g>
<!-- 6&#45;&gt;5 -->
<g id="edge3" class="edge">
<title>6&#45;&gt;5</title>
<path fill="none" stroke="black" d="M301.87,-242.22C313.85,-232.77 327.2,-222.25 340.31,-211.92"/>
<polygon fill="black" stroke="black" points="342.74,-214.46 348.43,-205.53 338.41,-208.97 342.74,-214.46"/>
</g>
</g>
</svg>
